<?xml version="1.0" encoding="UTF-8"?><svg id="Layer_1" xmlns="http://www.w3.org/2000/svg" width="1366" height="768" xmlns:xlink="http://www.w3.org/1999/xlink" viewBox="0 0 1366 768"><defs><style>.cls-1,.cls-2{fill:none;}.cls-3{fill:url(#linear-gradient-2);opacity:.87;}.cls-3,.cls-4,.cls-5,.cls-6,.cls-7,.cls-8,.cls-9,.cls-2,.cls-10,.cls-11,.cls-12{stroke:#000;stroke-miterlimit:10;}.cls-3,.cls-13,.cls-14,.cls-10,.cls-12{isolation:isolate;}.cls-15{fill:#00427e;}.cls-5{fill:#ffdc94;stroke-width:.5px;}.cls-6{fill:gray;stroke-width:.25px;}.cls-13{fill:#a5654e;opacity:.6;}.cls-14{fill:#9cdbf8;opacity:.4;}.cls-7{fill:#f05a24;}.cls-8{fill:#f6921e;}.cls-9{fill:#e5e5e5;}.cls-10{opacity:.78;}.cls-11{fill:url(#linear-gradient);}.cls-12{fill:url(#SVGID_1_);opacity:.37;}</style><pattern id="SVGID_1_" x="0" y="0" width="108.3" height="109.6" patternTransform="translate(-95.2 -107.5) scale(1 -1)" patternUnits="userSpaceOnUse" viewBox="0 0 108.3 109.6"><g><rect class="cls-1" width="108.3" height="109.6"/><g><rect class="cls-1" x="0" width="108.3" height="109.6"/><g><rect class="cls-1" x="0" width="108.3" height="109.6"/><g><rect class="cls-1" x="0" width="108.3" height="109.6"/><g><path class="cls-15" d="M87.4-34.8c0,.1,.1,.2,.2,.2,12.9,.1,24.8,3.3,34,11.5-8-5.6-22.9-7.5-31.5-3.6-.1,0-.2,.2-.1,.3,0,.1,.1,.2,.3,.2,10.7-.3,19.3,3,26,9-6.9,.4-12.6,4.7-12.6,9.8,0,.1,.1,.2,.2,.2s.2,0,.3-.1c1.1-2.5,4.7-3.8,8.6-2.9,4.2,1,7,4.2,6.3,7.2-.5,2-2.4,3.4-5,3.8-.1,0-.2,.1-.2,.3,0,.1,.1,.2,.2,.2,1.1,.1,2.2,.1,3.3,0,6.5-.6,11.5-4.6,11.9-9.2,4.7,.5,8.9,3.2,10.4,6.8,0,.1,.2,.2,.3,.2s.2-.1,.2-.2c.4-4.8-1.3-7.8-5-10.9,5.4,2.1,11.4,2.2,17.3-.5,.1,0,.2-.2,.1-.3,0-.1-.1-.2-.2-.2-4.9-.2-8.4-1.8-11.7-5.1,18.3,5.1,33.1-6.2,28-23.1,0-.1-.1-.2-.3-.2-.1,0-.2,.1-.2,.2-.9,9.7-7.7,16.1-17.9,17.1,5.4-2.1,11-7,11.6-15.5,0-.1-.1-.2-.2-.3-.1,0-.2,0-.3,.1-2.8,6.2-8.3,9.3-14.2,9.8,6.3-2.6,10.4-8.6,11.6-16.4,0-.1-.1-.2-.2-.3-.1,0-.2,0-.3,.1-3.9,7.6-12.2,12.8-22.4,8.8-10.6-4.1-15.3-16.4-16.3-25,0-.1-.1-.2-.2-.2s-.2,.1-.3,.2c-3.7,15.7,3.6,31.9,16.6,38.8-7.1-2-13.4-6.3-17-13.4-8.3-1-14-3.9-16.9-9.2-.1-.1-.2-.2-.3-.1-.1,0-.2,.1-.2,.3,.2,2.1,.9,6.3,4.1,8.3-7,0-12.5,.9-17.8,3-.1,.1-.2,.2-.2,.3h0Zm29.5-53.4c-.1,.1-.2,.1-.3,0s-.1-.2,0-.3c1.6-2.8,.1-6.8-3.1-6.8-5.7,0-8.5,10.8-7.6,20.6,2.2-5.8,4-8.1,7.3-10.8,.1-.1,.2-.1,.3,0s.1,.2,.1,.3c-4.9,9.1-5.9,16.1-5.9,24.1,1.5-6,3.2-9.3,8.1-14.4,.1-.1,.2-.1,.3,0s.1,.2,.1,.3c-5.3,11.6-4.9,24.4-.9,34.3,0,.1,0,.2-.1,.3-.1,.1-.2,.1-.3,0-5.2-2.6-8.3-4.2-12.8-10.4,1.4-7.4,.2-11-3.2-17.2,3.9,9.9,1.8,23.9-8.2,29.6-.1,.1-.2,0-.3-.1s-.1-.2,0-.3c3.8-4,6.5-10.6,4.2-17.9,1.5,10.4-7.6,19.1-17.8,19.1-9.6,0-16.2-7.5-15.6-14.9,.5-7.4,5.4-11,9.7-12.5,.1,0,.2,0,.3,.1s0,.2,0,.3c-5.6,5.7-6.4,16.5,3.6,19.8-5.9-5.1-3.7-16.8,5.7-17.7,.1,0,.2,.1,.3,.2,0,.1,0,.2-.1,.3-2,1.3-3.7,3.8-3.7,6.6,0,4.7,3.4,6.5,5.7,6.5,3.4,0,6.3-3.3,6.3-8.2,0-5.8-5.3-10.7-12-11.4-6.6-.7-12.8,2.2-15.8,6.5-.1,.1-.2,.1-.3,.1-.1-.1-.2-.2-.1-.3,3-11.7,16.8-16.9,26.9-9.5-6.6-7.5-17-7.6-25.7,.1-.1,.1-.2,.1-.3,0-.1-.1-.1-.2-.1-.3,2.7-5.4,9.3-11.8,18.6-10.9,8.6,.9,13.5,9,14.5,15.7,.6-8.5-1.4-14.5-8.8-20.1-.1-.1-.1-.2-.1-.3,.1-.1,.2-.2,.3-.1,6.8,2,12.2,5.4,15,12.5,0-6.2-2.1-12.4-7.5-16.5-.1-.1-.1-.2-.1-.3s.2-.2,.3-.1c3.5,1,6.2,2.5,8.1,5.2,1.3-11.1,6.5-17.7,12.5-17.7,4.1,0,7.2,3,7.2,7.9,.1,2.4-1.4,6.4-4.7,8.6h0ZM216.1,3.4c-3.2,3.9-9.5,5.4-16.4,4,.5,4.3-.3,8.8-1.6,11.5-.1,.1-.2,.2-.3,.1-.1,0-.2-.1-.2-.3,.4-8.8-4.6-15.8-13.4-18.9,6.9,4.8,8.9,14.2,5.6,19.1-.1,.1-.2,.1-.3,.1s-.2-.2-.2-.3c.4-2.1-.6-4.7-2.7-6.7-2.9-2.8-6.8-3.5-8.8-1.4-2,2-1.2,5.9,1.7,8.8,1.1,1,2.3,1.8,3.4,2.2,.1,0,.2,.2,.2,.3s-.1,.2-.2,.2c-6.4,.6-10.8-3.3-13.5-7.9-2.8-4.7-7.6-8.4-13.2-7.7-.1,0-.2-.1-.3-.2,0-.1,0-.2,.1-.3,2.8-1.7,5.9-2.4,9.9-1.1-5.8-4.9-14-7.7-21.8-5.2-.1,0-.2,0-.3-.1s-.1-.2,0-.3c5.9-6.6,17.7-6.7,25.1-1.4-3-4.3-7.1-7.5-14.3-8.5-.1,0-.2-.1-.2-.2s.1-.2,.2-.3c8.3-3.1,16.6,0,23.4,8.2-3-6.4-7.9-11.5-14.8-14-.1,0-.2-.2-.2-.3s.1-.2,.2-.2c3.9-.1,7.5,.9,12.3,3.6-3.5-5.7-2.7-15.6,2.4-22.3,.1-.1,.2-.1,.3-.1s.2,.2,.1,.3c-1.2,7.2,1.3,15.3,5.6,19.6-2.2-7.6,0-14.6,5.9-19.6,.1-.1,.2-.1,.3,0,.1,0,.1,.1,.2,.2,1.2,9.4,11.8,19,20.6,19.8,.1,0,.2,.1,.2,.2s-.1,.2-.2,.3c-4.3,1-8.7,.5-12.4-1,2.7,2.9,5.9,5.1,9.6,6.2,.1,0,.2,.2,.2,.3s-.1,.2-.2,.2c-4.5,.3-8.9-1-12.7-3.5,4.4,6.6,11,11.5,19.4,13.5,.1,0,.2,.1,.2,.3,0,.1-.1,.2-.2,.2-11.9,1.3-21.7-3.3-28.2-11.9,1.6,4.9,6.4,9.8,12.9,12.6,5.8,2.5,11.9,2.9,16.4,1.5,.1,0,.2,0,.3,.1,0,.1,0,.2-.1,.3h0Zm-52.9-75.6c4.8,10.5,4.5,18.7,.6,29.1,0,.1-.2,.2-.3,.2s-.2-.1-.2-.3c.6-12.6-2.8-21.7-10.3-27.8,8.2,9.9,4.4,29.6-8.8,29.6-9.6,0-17.5-8-19.5-17.5,0-.1,0-.2,.2-.3,.1,0,.2,0,.3,.1,2.8,4.8,7.4,7.9,12.5,7.9,8.1,0,10.5-6.5,10.5-11,0-6.2-4.9-11.3-8.7-11.3-3.4,0-5,2.8-5,4.9,0,3.9,3,7.2,6.4,8.2,.1,0,.2,.2,.2,.3s-.1,.2-.2,.2c-4.1,0-7.6-1.9-9.6-5.6-.3,2.9-.3,4.7,.6,7.7,0,.1,0,.2-.1,.3s-.2,0-.3-.1c-7.4-9.4-3.8-25.6,2-32.4-5.5,4-10.4,12.6-10.3,24.4,0,.1-.1,.2-.2,.2s-.2,0-.3-.2c-4.1-10.3-1.9-29.2,9.3-39.9-2.9-.4-5.9-.3-9.1,.7-.1,0-.2,0-.3-.1s0-.2,.1-.3c4.1-3.5,9.8-4.5,15.3-4.5-4.7,5.5-3.1,16.6,4.4,16.6,5.3,0,7.8-8.3,3.6-12.8-.1-.1-.1-.2,0-.3s.2-.1,.3-.1c4.8,1.7,9.9,5.8,9.9,11s-4.8,9.4-11.8,9.1c8.8,2.5,18.1-.3,22.9-6.3,.1-.1,.2-.1,.3-.1,.1,.1,.2,.2,.1,.3-2.8,10.7-12,15.2-23.4,13.7,9.3,3.8,23.2,.5,29.4-7.3,.1-.1,.2-.1,.3-.1,.1,.1,.2,.2,.1,.3-1.6,6.6-5.1,11.6-10.9,13.5h0Z"/><path class="cls-14" d="M189.6-52.9c0-.1-.1-.2-.2-.2-12.9-.1-24.8-3.3-34-11.5,8,5.6,22.9,7.5,31.5,3.6,.1-.1,.2-.2,.1-.3,0-.1-.1-.2-.3-.2-10.7,.3-19.3-3-26-9,6.9-.4,12.6-4.7,12.6-9.8,0-.1-.1-.2-.2-.2s-.2,0-.3,.1c-1.1,2.5-4.7,3.8-8.6,2.9-4.2-1-7-4.2-6.3-7.2,.5-2,2.4-3.4,5-3.8,.1,0,.2-.1,.2-.3,0-.1-.1-.2-.2-.2-1.1-.1-2.2-.1-3.3,0-6.5,.6-11.5,4.6-11.9,9.2-4.7-.5-8.9-3.2-10.4-6.8,0-.1-.2-.2-.3-.2s-.2,.1-.2,.2c-.4,4.8,1.3,7.8,5,10.9-5.4-2.1-11.4-2.2-17.3,.5-.1,.1-.2,.2-.1,.3,0,.1,.1,.2,.2,.2,4.9,.2,8.4,1.8,11.7,5.1-18.3-5.1-33.1,6.2-28,23.1,0,.1,.1,.2,.3,.2s.2-.1,.2-.2c.9-9.7,7.7-16.1,17.9-17.1-5.4,2.1-11,7-11.6,15.5,0,.1,.1,.2,.2,.3,.1,0,.2,0,.3-.1,2.8-6.2,8.3-9.3,14.2-9.8-6.3,2.6-10.4,8.6-11.6,16.4,0,.1,.1,.2,.2,.3,.1,0,.2,0,.3-.1,3.9-7.6,12.2-12.8,22.4-8.8,10.6,4.1,15.3,16.4,16.3,25,0,.1,.1,.2,.2,.2s.2-.1,.3-.2c3.7-15.7-3.6-31.9-16.6-38.8,7.1,2,13.4,6.3,17,13.4,8.3,1,14,3.9,16.9,9.2,.1,.1,.2,.2,.3,.1,.1,0,.2-.1,.2-.3-.2-2.1-.9-6.3-4.1-8.3,7,0,12.5-.9,17.8-3,.2-.1,.2-.2,.2-.3ZM160.1,.6c.1-.1,.2-.1,.3,0s.1,.2,0,.3c-1.6,2.8-.1,6.8,3.1,6.8,5.7,0,8.5-10.8,7.6-20.6-2.2,5.8-4,8.1-7.3,10.8-.1,.1-.2,.1-.3,0s-.1-.2-.1-.3c4.9-9.1,5.9-16.1,5.9-24.1-1.5,6-3.2,9.3-8.1,14.4-.1,.1-.2,.1-.3,0s-.1-.2-.1-.3c5.3-11.6,4.9-24.4,.9-34.3,0-.1,0-.2,.1-.3s.2-.1,.3,0c5.2,2.6,8.3,4.2,12.8,10.4-1.4,7.4-.2,11,3.2,17.2-3.9-9.9-1.8-23.9,8.2-29.6,.1-.1,.2,0,.3,.1s.1,.2,0,.3c-3.8,4-6.5,10.6-4.2,17.9-1.5-10.4,7.6-19.1,17.8-19.1,9.6,0,16.2,7.5,15.6,14.9-.5,7.4-5.4,11-9.7,12.5-.1,0-.2,0-.3-.1s-.1-.2,0-.3c5.6-5.7,6.4-16.5-3.6-19.8,5.9,5.1,3.7,16.8-5.7,17.7-.1,0-.2-.1-.3-.2,0-.1,0-.2,.1-.3,2-1.3,3.7-3.8,3.7-6.6,0-4.7-3.4-6.5-5.7-6.5-3.4,0-6.3,3.3-6.3,8.2,0,5.8,5.3,10.7,12,11.4,6.6,.7,12.8-2.2,15.8-6.5,.1-.1,.2-.1,.3-.1,.1,.1,.2,.2,.1,.3-3,11.7-16.8,16.9-26.9,9.5,6.6,7.5,17,7.6,25.7-.1,.1-.1,.2-.1,.3,0,.1,.1,.1,.2,.1,.3-2.7,5.4-9.3,11.8-18.6,10.9-8.6-.9-13.5-9-14.5-15.7-.6,8.5,1.4,14.5,8.8,20.1,.1,.1,.1,.2,.1,.3-.1,.1-.2,.2-.3,.1-6.8-2-12.2-5.4-15-12.5,0,6.2,2.1,12.4,7.5,16.5,.1,.1,.1,.2,.1,.3-.1,.1-.2,.2-.3,.1-3.5-1-6.2-2.5-8.1-5.2-1.3,11.1-6.5,17.7-12.5,17.7-4.1,0-7.2-3-7.2-7.9-.1-2.4,1.4-6.4,4.7-8.6h0ZM60.9-91c3.2-3.9,9.5-5.4,16.4-4-.5-4.3,.3-8.8,1.6-11.5,.1-.1,.2-.2,.3-.1s.2,.1,.2,.3c-.4,8.8,4.6,15.8,13.4,18.9-6.9-4.8-8.9-14.2-5.6-19.1,.1-.1,.2-.1,.3-.1s.2,.2,.2,.3c-.4,2.1,.6,4.7,2.7,6.7,2.9,2.8,6.8,3.5,8.8,1.4,2-2,1.2-5.9-1.7-8.8-1.1-1-2.3-1.8-3.4-2.2-.1,0-.2-.2-.2-.3s.1-.2,.2-.2c6.4-.6,10.8,3.3,13.5,7.9,2.8,4.7,7.6,8.4,13.2,7.7,.1,0,.2,.1,.3,.2,0,.1,0,.2-.1,.3-2.8,1.7-5.9,2.4-9.9,1.1,5.8,4.9,14,7.7,21.8,5.2,.1,0,.2,0,.3,.1s.1,.2,0,.3c-5.9,6.6-17.7,6.7-25.1,1.4,3,4.3,7.1,7.5,14.3,8.5,.1,0,.2,.1,.2,.2s-.1,.2-.2,.3c-8.3,3.1-16.6,0-23.4-8.2,3,6.4,7.9,11.5,14.8,14,.1,0,.2,.2,.2,.3s-.1,.2-.2,.2c-3.9,.1-7.5-.9-12.3-3.6,3.5,5.7,2.7,15.6-2.4,22.3-.1,.1-.2,.1-.3,.1s-.2-.2-.1-.3c1.2-7.2-1.3-15.3-5.6-19.6,2.2,7.6,0,14.6-5.9,19.6-.1,.1-.2,.1-.3,0-.1,0-.1-.1-.2-.2-1.2-9.4-11.8-19-20.6-19.8-.1,0-.2-.1-.2-.2s.1-.2,.2-.3c4.3-1,8.7-.5,12.4,1-2.7-2.9-5.9-5.1-9.6-6.2-.1,0-.2-.2-.2-.3s.1-.2,.2-.2c4.5-.3,8.9,1,12.7,3.5-4.4-6.6-11-11.5-19.4-13.5-.1,0-.2-.1-.2-.3,0-.1,.1-.2,.2-.2,11.9-1.3,21.7,3.3,28.2,11.9-1.6-4.9-6.4-9.8-12.9-12.6-5.8-2.5-11.8-2.9-16.4-1.5-.1,0-.2,0-.3-.1,0-.1,0-.3,.1-.3h0ZM113.8-15.5c-4.8-10.5-4.5-18.7-.6-29.1,0-.1,.2-.2,.3-.2s.2,.1,.2,.3c-.6,12.6,2.8,21.7,10.3,27.8-8.2-9.9-4.4-29.6,8.8-29.6,9.6,0,17.5,8,19.5,17.5,0,.1,0,.2-.2,.3-.1,0-.2,0-.3-.1-2.8-4.8-7.4-7.9-12.5-7.9-8.1,0-10.5,6.5-10.5,11,0,6.2,4.9,11.3,8.7,11.3,3.4,0,5-2.8,5-4.9,0-3.9-3-7.2-6.4-8.2-.1,0-.2-.2-.2-.3s.1-.2,.2-.2c4.1,0,7.6,1.9,9.6,5.6,.3-2.9,.3-4.7-.6-7.7,0-.1,0-.2,.1-.3s.2,0,.3,.1c7.4,9.4,3.8,25.6-2,32.4,5.5-4,10.4-12.6,10.3-24.4,0-.1,.1-.2,.2-.2s.2,0,.3,.2c4.1,10.3,1.9,29.2-9.3,39.9,2.9,.4,5.9,.3,9.1-.7,.1,0,.2,0,.3,.1s0,.2-.1,.3c-4.1,3.5-9.8,4.5-15.3,4.5,4.7-5.5,3.1-16.6-4.4-16.6-5.3,0-7.8,8.3-3.6,12.8,.1,.1,.1,.2,0,.3s-.2,.1-.3,.1c-4.8-1.7-9.9-5.8-9.9-11s4.8-9.4,11.8-9.1c-8.8-2.5-18.1,.3-22.9,6.3-.1,.1-.2,.1-.3,.1-.1-.1-.2-.2-.1-.3,2.8-10.7,12-15.2,23.4-13.7-9.3-3.8-23.2-.5-29.4,7.3-.1,.1-.2,.1-.3,.1s-.2-.2-.1-.3c1.7-6.6,5.2-11.5,10.9-13.5Z"/></g><g><path class="cls-15" d="M-20.9-34.8c0,.1,.1,.2,.2,.2,12.9,.1,24.8,3.3,34,11.5-8-5.6-22.9-7.5-31.5-3.6-.1,0-.2,.2-.1,.3,0,.1,.1,.2,.3,.2,10.7-.3,19.3,3,26,9-6.9,.4-12.6,4.7-12.6,9.8,0,.1,.1,.2,.2,.2s.2,0,.3-.1c1.1-2.5,4.7-3.8,8.6-2.9,4.2,1,7,4.2,6.3,7.2C10.3-1,8.4,.4,5.8,.8c-.1,0-.2,.1-.2,.3,0,.1,.1,.2,.2,.2,1.1,.1,2.2,.1,3.3,0,6.5-.6,11.5-4.6,11.9-9.2,4.7,.5,8.9,3.2,10.4,6.8,0,.1,.2,.2,.3,.2s.2-.1,.2-.2c.4-4.8-1.3-7.8-5-10.9,5.4,2.1,11.4,2.2,17.3-.5,.1,0,.2-.2,.1-.3,0-.1-.1-.2-.2-.2-4.9-.2-8.4-1.8-11.7-5.1,18.3,5.1,33.1-6.2,28-23.1,0-.1-.1-.2-.3-.2-.1,0-.2,.1-.2,.2-.9,9.7-7.7,16.1-17.9,17.1,5.4-2.1,11-7,11.6-15.5,0-.1-.1-.2-.2-.3-.1,0-.2,0-.3,.1-2.8,6.2-8.3,9.3-14.2,9.8,6.3-2.6,10.4-8.6,11.6-16.4,0-.1-.1-.2-.2-.3-.1,0-.2,0-.3,.1-3.9,7.6-12.2,12.8-22.4,8.8-10.7-3.9-15.4-16.2-16.4-24.9,0-.1-.1-.2-.2-.2s-.2,.1-.3,.2c-3.7,15.7,3.6,31.9,16.6,38.8-7.1-2-13.4-6.3-17-13.4-8.3-1-14-3.9-16.9-9.2-.1-.1-.2-.2-.3-.1-.1,0-.2,.1-.2,.3,.2,2.1,.9,6.3,4.1,8.3-7,0-12.5,.9-17.8,3-.1,0-.1,.1-.1,.2ZM8.6-88.2c-.1,.1-.2,.1-.3,0s-.1-.2,0-.3c1.6-2.8,.1-6.8-3.1-6.8-5.7,0-8.5,10.8-7.6,20.6,2.2-5.8,4-8.1,7.3-10.8,.1-.1,.2-.1,.3,0s.1,.2,.1,.3C.5-76.2-.6-69.2-.6-61.2c1.5-6,3.2-9.3,8.1-14.4,.1-.1,.2-.1,.3,0s.1,.2,.1,.3c-5.3,11.6-4.9,24.4-.9,34.3,0,.1,0,.2-.1,.3-.1,.1-.2,.1-.3,0-5.2-2.6-8.3-4.2-12.8-10.4,1.4-7.4,.2-11-3.2-17.2,3.9,9.9,1.8,23.9-8.2,29.6-.1,.1-.2,0-.3-.1-.1-.1-.1-.2,0-.3,3.8-4,6.5-10.6,4.2-17.9,1.5,10.4-7.6,19.1-17.8,19.1-9.6,0-16.2-7.5-15.6-14.9,.5-7.4,5.4-11,9.7-12.5,.1,0,.2,0,.3,.1s0,.2,0,.3c-5.6,5.7-6.4,16.5,3.6,19.8-5.9-5.1-3.7-16.8,5.7-17.7,.1,0,.2,.1,.3,.2,0,.1,0,.2-.1,.3-2,1.3-3.7,3.8-3.7,6.6,0,4.7,3.4,6.5,5.7,6.5,3.4,0,6.3-3.3,6.3-8.2,0-5.8-5.3-10.7-12-11.4-6.7-.9-12.9,2-15.8,6.3-.1,.1-.2,.1-.3,.1-.2,0-.2-.2-.2-.3,3-11.7,16.8-16.9,26.9-9.5-6.6-7.5-17-7.6-25.7,.1-.1,.1-.2,.1-.3,0s-.1-.2-.1-.3c2.7-5.4,9.3-11.8,18.6-10.9,8.6,.9,13.5,9,14.5,15.7,.6-8.5-1.4-14.5-8.8-20.1-.1-.1-.1-.2-.1-.3,.1-.1,.2-.2,.3-.1,6.8,2,12.2,5.4,15,12.5,0-6.2-2.1-12.4-7.5-16.5-.1-.1-.1-.2-.1-.3,.1-.1,.2-.2,.3-.1,3.5,1,6.2,2.5,8.1,5.2C-5.2-98.4,0-105,6-105c4.1,0,7.2,3,7.2,7.9,.2,2.7-1.3,6.7-4.6,8.9ZM107.8,3.4c-3.2,3.9-9.5,5.4-16.4,4,.5,4.3-.3,8.8-1.6,11.5-.1,.1-.2,.2-.3,.1-.1,0-.2-.1-.2-.3,.4-8.8-4.6-15.8-13.4-18.9,6.9,4.8,8.9,14.2,5.6,19.1-.1,.1-.2,.1-.3,.1s-.2-.2-.2-.3c.4-2.1-.6-4.7-2.7-6.7-2.9-2.8-6.8-3.5-8.8-1.4-2,2-1.2,5.9,1.7,8.8,1.1,1,2.3,1.8,3.4,2.2,.1,0,.2,.2,.2,.3s-.1,.2-.2,.2c-6.4,.6-10.8-3.3-13.5-7.9-2.8-4.7-7.6-8.4-13.2-7.7-.1,0-.2-.1-.3-.2,0-.1,0-.2,.1-.3,2.8-1.7,5.9-2.4,9.9-1.1C51.8,0,43.6-2.8,35.8-.3c-.1,0-.2,0-.3-.1-.1-.1-.1-.2,0-.3,5.9-6.6,17.7-6.7,25.1-1.4-3-4.3-7.1-7.5-14.3-8.5-.1,0-.2-.1-.2-.2s.1-.2,.2-.3c8.3-3.1,16.6,0,23.4,8.2-3-6.4-7.9-11.5-14.8-14-.1,0-.2-.2-.2-.3s.1-.2,.2-.2c3.9-.1,7.5,.9,12.3,3.6-3.5-5.7-2.7-15.6,2.4-22.3,.1-.1,.2-.1,.3-.1s.2,.2,.1,.3c-1.2,7.2,1.3,15.3,5.6,19.6-2.2-7.6,0-14.6,5.9-19.6,.1-.1,.2-.1,.3,0,.1,0,.1,.1,.2,.2,1.2,9.4,11.8,19,20.6,19.8,.1,0,.2,.1,.2,.2s-.1,.2-.2,.3c-4.3,1-8.7,.5-12.4-1,2.7,2.9,5.9,5.1,9.6,6.2,.1,0,.2,.2,.2,.3s-.1,.2-.2,.2c-4.5,.3-8.9-1-12.7-3.5,4.4,6.6,11,11.5,19.4,13.5,.1,0,.2,.1,.2,.3,0,.1-.1,.2-.2,.2-11.9,1.3-21.7-3.3-28.2-11.9,1.6,4.9,6.4,9.8,12.9,12.6,5.8,2.5,11.8,2.9,16.4,1.5,.1,0,.2,0,.3,.1,0,.1,0,.2-.1,.3ZM54.9-72.2c4.8,10.5,4.5,18.7,.6,29.1,0,.1-.2,.2-.3,.2s-.2-.1-.2-.3c.6-12.6-2.8-21.7-10.3-27.8,8.2,9.9,4.4,29.6-8.8,29.6-9.6,0-17.5-8-19.5-17.5,0-.1,0-.2,.2-.3,.1,0,.2,0,.3,.1,2.8,4.8,7.4,7.9,12.5,7.9,8.1,0,10.5-6.5,10.5-11,0-6.2-4.9-11.3-8.7-11.3-3.4,0-5,2.8-5,4.9,0,3.9,3,7.2,6.4,8.2,.1,0,.2,.2,.2,.3s-.1,.2-.2,.2c-4.1,0-7.6-1.9-9.6-5.6-.3,2.9-.3,4.7,.6,7.7,0,.1,0,.2-.1,.3s-.2,0-.3-.1c-7.4-9.4-3.8-25.6,2-32.4-5.5,4-10.4,12.6-10.3,24.4,0,.1-.1,.2-.2,.2s-.2,0-.3-.2c-4.1-10.3-1.9-29.2,9.3-39.9-2.9-.4-5.9-.3-9.1,.7-.1,0-.2,0-.3-.1s0-.2,.1-.3c3.8-3.4,9.5-4.5,15-4.5-4.7,5.5-3.1,16.6,4.4,16.6,5.3,0,7.8-8.3,3.6-12.8-.1-.1-.1-.2,0-.3s.2-.1,.3-.1c4.8,1.7,9.9,5.8,9.9,11s-4.8,9.4-11.8,9.1c8.8,2.5,18.1-.3,22.9-6.3,.1-.1,.2-.1,.3-.1,.1,.1,.2,.2,.1,.3-2.8,10.7-12,15.2-23.4,13.7,9.3,3.8,23.2,.5,29.4-7.3,.1-.1,.2-.1,.3-.1,.1,.1,.2,.2,.1,.3-1.3,6.6-4.8,11.6-10.6,13.5h0Z"/><path class="cls-14" d="M81.3-52.9c0-.1-.1-.2-.2-.2-12.9-.1-24.8-3.3-34-11.5,8,5.6,22.9,7.5,31.5,3.6,.1-.1,.2-.2,.1-.3,0-.1-.1-.2-.3-.2-10.7,.3-19.3-3-26-9,6.9-.4,12.6-4.7,12.6-9.8,0-.1-.1-.2-.2-.2s-.2,0-.3,.1c-1.1,2.5-4.7,3.8-8.6,2.9-4.2-1-7-4.2-6.3-7.2,.5-2,2.4-3.4,5-3.8,.1,0,.2-.1,.2-.3,0-.1-.1-.2-.2-.2-1.1-.1-2.2-.1-3.3,0-6.5,.6-11.5,4.6-11.9,9.2-4.7-.5-8.9-3.2-10.4-6.8,0-.1-.2-.2-.3-.2s-.2,.1-.2,.2c-.4,4.8,1.3,7.8,5,10.9-5.4-2.1-11.4-2.2-17.3,.5-.1,.1-.2,.2-.1,.3,0,.1,.1,.2,.2,.2,4.9,.2,8.4,1.8,11.7,5.1C9.7-74.7-5.1-63.4,0-46.5c0,.1,.1,.2,.3,.2,.1,0,.2-.1,.2-.2,1-9.8,7.8-16.2,17.9-17.1-5.4,2.1-11,7-11.6,15.5,0,.1,.1,.2,.2,.3,.1,0,.2,0,.3-.1,2.8-6.2,8.3-9.3,14.2-9.8-6.3,2.6-10.4,8.6-11.6,16.4,0,.1,.1,.2,.2,.3,.1,0,.2,0,.3-.1,3.9-7.6,12.2-12.8,22.4-8.8,10.6,4.1,15.3,16.4,16.3,25,0,.1,.1,.2,.2,.2s.2-.1,.3-.2c3.7-15.7-3.6-31.9-16.6-38.8,7.1,2,13.4,6.3,17,13.4,8.3,1,14,3.9,16.9,9.2,.1,.1,.2,.2,.3,.1,.1,0,.2-.1,.2-.3-.2-2.1-.9-6.3-4.1-8.3,7,0,12.5-.9,17.8-3,.1-.1,.2-.2,.2-.3ZM51.8,.6c.1-.1,.2-.1,.3,0,.1,.1,.1,.2,0,.3-1.6,2.8-.1,6.8,3.1,6.8,5.7,0,8.5-10.8,7.6-20.6-2.2,5.8-4,8.1-7.3,10.8-.1,.1-.2,.1-.3,0-.1-.1-.1-.2-.1-.3,4.9-9.1,5.9-16.1,5.9-24.1-1.5,6-3.2,9.3-8.1,14.4-.1,.1-.2,.1-.3,0s-.1-.2-.1-.3c5.3-11.6,4.9-24.4,.9-34.3,0-.1,0-.2,.1-.3s.2-.1,.3,0c5.2,2.6,8.3,4.2,12.8,10.4-1.4,7.4-.2,11,3.2,17.2-3.9-9.9-1.8-23.9,8.2-29.6,.1-.1,.2,0,.3,.1,.1,.1,.1,.2,0,.3-3.8,4-6.5,10.6-4.2,17.9-1.5-10.4,7.6-19.1,17.8-19.1,9.6,0,16.2,7.5,15.6,14.9-.5,7.4-5.4,11-9.7,12.5-.1,0-.2,0-.3-.1s-.1-.2,0-.3c5.6-5.7,6.4-16.5-3.6-19.8,5.9,5.1,3.7,16.8-5.7,17.7-.1,0-.2-.1-.3-.2,0-.1,0-.2,.1-.3,2-1.3,3.7-3.8,3.7-6.6,0-4.7-3.4-6.5-5.7-6.5-3.4,0-6.3,3.3-6.3,8.2,0,5.8,5.3,10.7,12,11.4,6.6,.7,12.8-2.2,15.8-6.5,.1-.1,.2-.1,.3-.1,.1,.1,.2,.2,.1,.3-3,11.7-16.8,16.9-26.9,9.5,6.6,7.5,17,7.6,25.7-.1,.1-.1,.2-.1,.3,0s.1,.2,.1,.3c-2.7,5.4-9.3,11.8-18.6,10.9-8.6-.9-13.5-9-14.5-15.7-.6,8.5,1.4,14.5,8.8,20.1,.1,.1,.1,.2,.1,.3-.1,.1-.2,.2-.3,.1-6.8-2-12.2-5.4-15-12.5,0,6.2,2.1,12.4,7.5,16.5,.1,.1,.1,.2,.1,.3-.1,.1-.2,.2-.3,.1-3.5-1-6.2-2.5-8.1-5.2-1.3,11.1-6.5,17.7-12.5,17.7-4.1,0-7.2-3-7.2-7.9-.1-2.4,1.4-6.4,4.7-8.6h0ZM-47.4-91c3.2-3.9,9.5-5.4,16.4-4-.5-4.3,.3-8.8,1.6-11.5,.1-.1,.2-.2,.3-.2s.2,.1,.2,.3c-.4,8.8,4.6,15.8,13.4,18.9-6.9-4.7-8.9-14.2-5.6-19,.1-.1,.2-.1,.3-.1s.2,.2,.2,.3c-.4,2.1,.6,4.7,2.7,6.7,2.9,2.8,6.8,3.5,8.8,1.4,2-2,1.2-5.9-1.7-8.8-1.1-1-2.3-1.8-3.4-2.2-.1,0-.2-.2-.2-.3s.1-.2,.2-.2c6.4-.6,10.8,3.3,13.5,7.9,2.8,4.7,7.6,8.4,13.2,7.7,.1,0,.2,.1,.3,.2,0,.1,0,.2-.1,.3-2.8,1.7-5.9,2.4-9.9,1.1,5.8,4.9,14,7.7,21.8,5.2,.1,0,.2,0,.3,.1s.1,.2,0,.3c-5.9,6.6-17.7,6.7-25.1,1.4,3,4.3,7.1,7.5,14.3,8.5,.1,0,.2,.1,.2,.2s-.1,.2-.2,.3c-8.3,3.1-16.6,0-23.4-8.2,3,6.4,7.9,11.5,14.8,14,.1,0,.2,.2,.2,.3s-.1,.2-.2,.2c-3.9,.1-7.5-.9-12.3-3.6,3.5,5.7,2.7,15.6-2.4,22.3-.1,.1-.2,.1-.3,.1s-.2-.2-.1-.3c1.2-7.2-1.3-15.3-5.6-19.6,2.2,7.6,0,14.6-5.9,19.6-.1,.1-.2,.1-.3,0-.1,0-.1-.1-.2-.2-1.2-9.4-11.8-19-20.6-19.8-.1,0-.2-.1-.2-.2s.1-.2,.2-.3c4.3-1,8.7-.5,12.4,1-2.7-2.9-5.9-5.1-9.6-6.2-.1-.1-.2-.2-.2-.3s.1-.2,.2-.2c4.5-.3,8.9,1,12.7,3.5-4.4-6.6-11-11.5-19.4-13.5-.1,0-.2-.1-.2-.3,0-.1,.1-.2,.2-.2,11.9-1.3,21.7,3.3,28.2,11.9-1.6-4.9-6.4-9.8-12.9-12.6-5.8-2.6-11.8-3-16.4-1.5-.1,0-.2,0-.3-.1,0-.1,0-.3,.1-.3h0ZM5.5-15.5C.7-26,1-34.2,4.9-44.6c0-.1,.2-.2,.3-.2s.2,.1,.2,.3c-.6,12.6,2.8,21.7,10.3,27.8-8.2-9.9-4.4-29.6,8.8-29.6,9.6,0,17.5,8,19.5,17.5,0,.1,0,.2-.2,.3-.1,0-.2,0-.3-.1-2.8-4.8-7.4-7.9-12.5-7.9-8.1,0-10.5,6.5-10.5,11,0,6.2,4.9,11.3,8.7,11.3,3.4,0,5-2.8,5-4.9,0-3.9-3-7.2-6.4-8.2-.1,0-.2-.2-.2-.3s.1-.2,.2-.2c4.1,0,7.6,1.9,9.6,5.6,.3-2.9,.3-4.7-.6-7.7,0-.1,0-.2,.1-.3,.1-.1,.2,0,.3,.1,7.4,9.4,3.8,25.6-2,32.4,5.5-4,10.4-12.6,10.3-24.4,0-.1,.1-.2,.2-.2s.2,0,.3,.2c4.1,10.3,1.9,29.2-9.3,39.9,2.9,.4,5.9,.3,9.1-.7,.1,0,.2,0,.3,.1s0,.2-.1,.3c-4.1,3.5-9.8,4.5-15.3,4.5,4.7-5.5,3.1-16.6-4.4-16.6-5.3,0-7.8,8.3-3.6,12.8,.1,.1,.1,.2,0,.3s-.2,.1-.3,.1c-4.8-1.7-9.9-5.8-9.9-11S17.3-1.8,24.3-1.5C15.5-4,6.2-1.2,1.4,4.8c-.1,.1-.2,.1-.3,.1-.1-.1-.2-.2-.1-.3C3.8-6.1,13-10.6,24.4-9.1,15.1-12.9,1.2-9.6-5-1.8c-.1,.1-.2,.1-.3,.1s-.2-.2-.1-.3C-3.8-8.6-.3-13.5,5.5-15.5Z"/></g><g><path class="cls-15" d="M87.4,74.9c0,.1,.1,.2,.2,.2,12.9,.1,24.8,3.3,34,11.5-8-5.6-22.9-7.5-31.5-3.6-.1,0-.2,.2-.1,.3,0,.1,.1,.2,.3,.2,10.7-.3,19.3,3,26,9-6.9,.4-12.6,4.7-12.6,9.8,0,.1,.1,.2,.2,.2s.2,0,.3-.1c1.1-2.5,4.7-3.8,8.6-2.9,4.2,1,7,4.2,6.3,7.2-.5,2-2.4,3.4-5,3.8-.1,0-.2,.1-.2,.3,0,.1,.1,.2,.2,.2,1.1,.1,2.2,.1,3.3,0,6.5-.6,11.5-4.6,11.9-9.2,4.7,.5,8.9,3.2,10.4,6.8,0,.1,.2,.2,.3,.2s.2-.1,.2-.2c.4-4.8-1.3-7.8-5-10.9,5.4,2.1,11.4,2.2,17.3-.5,.1,0,.2-.2,.1-.3,0-.1-.1-.2-.2-.2-4.9-.2-8.4-1.8-11.7-5.1,18.3,5.1,33.1-6.2,28-23.1,0-.1-.1-.2-.3-.2-.1,0-.2,.1-.2,.2-.9,9.7-7.7,16.1-17.9,17.1,5.4-2.1,11-7,11.6-15.5,0-.1-.1-.2-.2-.3-.1,0-.2,0-.3,.1-2.8,6.2-8.3,9.3-14.2,9.8,6.3-2.6,10.4-8.6,11.6-16.4,0-.1-.1-.2-.2-.3-.1,0-.2,0-.3,.1-3.9,7.6-12.2,12.8-22.4,8.8-10.6-4.1-15.3-16.4-16.3-25,0-.1-.1-.2-.2-.2s-.2,.1-.3,.2c-3.7,15.7,3.6,31.9,16.6,38.8-7.1-2-13.4-6.3-17-13.4-8.3-1-14-3.9-16.9-9.2-.1-.1-.2-.2-.3-.1-.1,0-.2,.1-.2,.3,.2,2.1,.9,6.3,4.1,8.3-7,0-12.5,.9-17.8,3-.1,0-.2,.2-.2,.3h0Zm29.5-53.5c-.1,.1-.2,.1-.3,0s-.1-.2,0-.3c1.6-2.8,.1-6.8-3.1-6.8-5.7,0-8.5,10.8-7.6,20.6,2.2-5.8,4-8.1,7.3-10.8,.1-.1,.2-.1,.3,0s.1,.2,.1,.3c-4.9,9.1-5.9,16.1-5.9,24.1,1.5-6,3.2-9.3,8.1-14.4,.1-.1,.2-.1,.3,0s.1,.2,.1,.3c-5.3,11.6-4.9,24.4-.9,34.3,0,.1,0,.2-.1,.3s-.2,.1-.3,0c-5.2-2.6-8.3-4.2-12.8-10.4,1.4-7.4,.2-11-3.2-17.2,3.9,9.9,1.8,23.9-8.2,29.6-.1,.1-.2,0-.3-.1s-.1-.2,0-.3c3.8-4,6.5-10.6,4.2-17.9,1.5,10.4-7.6,19.1-17.8,19.1-9.6,0-16.2-7.5-15.6-14.9,.5-7.4,5.4-11,9.7-12.5,.1,0,.2,0,.3,.1,.1,.1,0,.2,0,.3-5.6,5.7-6.4,16.5,3.6,19.8-5.9-5.1-3.7-16.8,5.7-17.7,.1,0,.2,.1,.3,.2,0,.1,0,.2-.1,.3-2,1.3-3.7,3.8-3.7,6.6,0,4.7,3.4,6.5,5.7,6.5,3.4,0,6.3-3.3,6.3-8.2,0-5.8-5.3-10.7-12-11.4-6.6-.7-12.8,2.2-15.8,6.5-.1,.1-.2,.1-.3,.1-.1-.1-.2-.2-.1-.3,3-11.7,16.8-16.9,26.9-9.5-6.6-7.5-17-7.6-25.7,.1-.1,.1-.2,.1-.3,0-.1-.1-.1-.2-.1-.3,2.7-5.4,9.3-11.8,18.6-10.9,8.6,.9,13.5,9,14.5,15.7,.6-8.5-1.4-14.5-8.8-20.1-.1-.1-.1-.2-.1-.3,.1-.1,.2-.2,.3-.1,6.8,2,12.2,5.4,15,12.5,0-6.2-2.1-12.4-7.5-16.5-.1-.1-.1-.2-.1-.3s.2-.2,.3-.1c3.5,1,6.2,2.5,8.1,5.2,1.3-11.1,6.5-17.7,12.5-17.7,4.1,0,7.2,3,7.2,7.9,.1,2.4-1.4,6.4-4.7,8.6h0Zm99.2,91.6c-3.2,3.9-9.5,5.4-16.4,4,.5,4.3-.3,8.8-1.6,11.5-.1,.1-.2,.2-.3,.1-.1,0-.2-.1-.2-.3,.4-8.8-4.6-15.8-13.4-18.9,6.9,4.8,8.9,14.2,5.6,19.1-.1,.1-.2,.1-.3,.1s-.2-.2-.2-.3c.4-2.1-.6-4.7-2.7-6.7-2.9-2.8-6.8-3.5-8.8-1.4-2,2-1.2,5.9,1.7,8.8,1.1,1,2.3,1.8,3.4,2.2,.1,0,.2,.2,.2,.3s-.1,.2-.2,.2c-6.4,.6-10.8-3.3-13.5-7.9-2.8-4.7-7.6-8.4-13.2-7.7-.1,0-.2-.1-.3-.2,0-.1,0-.2,.1-.3,2.8-1.7,5.9-2.4,9.9-1.1-5.8-4.9-14-7.7-21.8-5.2-.1,0-.2,0-.3-.1s-.1-.2,0-.3c5.9-6.6,17.7-6.7,25.1-1.4-3-4.3-7.1-7.5-14.3-8.5-.1,0-.2-.1-.2-.2s.1-.2,.2-.3c8.3-3.1,16.6,0,23.4,8.2-3-6.4-7.9-11.5-14.8-14-.1,0-.2-.2-.2-.3s.1-.2,.2-.2c3.9-.1,7.5,.9,12.3,3.6-3.5-5.7-2.7-15.6,2.4-22.3,.1-.1,.2-.1,.3-.1s.2,.2,.1,.3c-1.2,7.2,1.3,15.3,5.6,19.6-2.2-7.6,0-14.6,5.9-19.6,.1-.1,.2-.1,.3,0,.1,0,.1,.1,.2,.2,1.2,9.4,11.8,19,20.6,19.8,.1,0,.2,.1,.2,.2s-.1,.2-.2,.3c-4.3,1-8.7,.5-12.4-1,2.7,2.9,5.9,5.1,9.6,6.2,.1,0,.2,.2,.2,.3s-.1,.2-.2,.2c-4.5,.3-8.9-1-12.7-3.5,4.4,6.6,11,11.5,19.4,13.5,.1,0,.2,.1,.2,.3,0,.1-.1,.2-.2,.2-11.9,1.3-21.7-3.3-28.2-11.9,1.6,4.9,6.4,9.8,12.9,12.6,5.8,2.5,11.9,2.9,16.4,1.5,.1,0,.2,0,.3,.1,0,.1,0,.2-.1,.3Zm-52.9-75.5c4.8,10.5,4.5,18.7,.6,29.1,0,.1-.2,.2-.3,.2s-.2-.1-.2-.3c.6-12.6-2.8-21.7-10.3-27.8,8.2,9.9,4.4,29.6-8.8,29.6-9.6,0-17.5-8-19.5-17.5,0-.1,0-.2,.2-.3,.1,0,.2,0,.3,.1,2.8,4.8,7.4,7.9,12.5,7.9,8.1,0,10.5-6.5,10.5-11,0-6.2-4.9-11.3-8.7-11.3-3.4,0-5,2.8-5,4.9,0,3.9,3,7.2,6.4,8.2,.1,0,.2,.2,.2,.3s-.1,.2-.2,.2c-4.1,0-7.6-1.9-9.6-5.6-.3,2.9-.3,4.7,.6,7.7,0,.1,0,.2-.1,.3s-.2,0-.3-.1c-7.4-9.4-3.8-25.6,2-32.4-5.5,4-10.4,12.6-10.3,24.4,0,.1-.1,.2-.2,.2s-.2,0-.3-.2c-4.1-10.3-1.9-29.2,9.3-39.9-2.9-.4-5.9-.3-9.1,.7-.1,0-.2,0-.3-.1s0-.2,.1-.3C126.8,1,132.5,0,138,0c-4.7,5.5-3.1,16.6,4.4,16.6,5.3,0,7.8-8.3,3.6-12.8-.1-.1-.1-.2,0-.3,.1-.1,.2-.1,.3-.1,4.8,1.7,9.9,5.8,9.9,11s-4.8,9.4-11.8,9.1c8.8,2.5,18.1-.3,22.9-6.3,.1-.1,.2-.1,.3-.1,.1,.1,.2,.2,.1,.3-2.8,10.7-12,15.2-23.4,13.7,9.3,3.8,23.2,.5,29.4-7.3,.1-.1,.2-.1,.3-.1,.1,.1,.2,.2,.1,.3-1.6,6.6-5.1,11.5-10.9,13.5Z"/><path class="cls-14" d="M189.6,56.8c0-.1-.1-.2-.2-.2-12.9-.1-24.8-3.3-34-11.5,8,5.6,22.9,7.5,31.5,3.6,.1-.1,.2-.2,.1-.3,0-.1-.1-.2-.3-.2-10.7,.3-19.3-3-26-9,6.9-.4,12.6-4.7,12.6-9.8,0-.1-.1-.2-.2-.2s-.2,0-.3,.1c-1.1,2.5-4.7,3.8-8.6,2.9-4.2-1-7-4.2-6.3-7.2,.5-2,2.4-3.4,5-3.8,.1,0,.2-.1,.2-.3,0-.1-.1-.2-.2-.2-1.1-.1-2.2-.1-3.3,0-6.5,.6-11.5,4.6-11.9,9.2-4.7-.5-8.9-3.2-10.4-6.8,0-.1-.2-.2-.3-.2s-.2,.1-.2,.2c-.4,4.8,1.3,7.8,5,10.9-5.4-2.1-11.4-2.2-17.3,.5-.1,.1-.2,.2-.1,.3,0,.1,.1,.2,.2,.2,4.9,.2,8.4,1.8,11.7,5.1-18.3-5.1-33.1,6.2-28,23.1,0,.1,.1,.2,.3,.2s.2-.1,.2-.2c.9-9.7,7.7-16.1,17.9-17.1-5.4,2.1-11,7-11.6,15.5,0,.1,.1,.2,.2,.3,.1,0,.2,0,.3-.1,2.8-6.2,8.3-9.3,14.2-9.8-6.3,2.6-10.4,8.6-11.6,16.4,0,.1,.1,.2,.2,.3,.1,0,.2,0,.3-.1,3.9-7.6,12.2-12.8,22.4-8.8,10.6,4.1,15.3,16.4,16.3,25,0,.1,.1,.2,.2,.2s.2-.1,.3-.2c3.7-15.7-3.6-31.9-16.6-38.8,7.1,2,13.4,6.3,17,13.4,8.3,1,14,3.9,16.9,9.2,.1,.1,.2,.2,.3,.1,.1,0,.2-.1,.2-.3-.2-2.1-.9-6.3-4.1-8.3,7,0,12.5-.9,17.8-3,.2-.1,.2-.2,.2-.3Zm-29.5,53.4c.1-.1,.2-.1,.3,0s.1,.2,0,.3c-1.6,2.8-.1,6.8,3.1,6.8,5.7,0,8.5-10.8,7.6-20.6-2.2,5.8-4,8.1-7.3,10.8-.1,.1-.2,.1-.3,0s-.1-.2-.1-.3c4.9-9.1,5.9-16.1,5.9-24.1-1.5,6-3.2,9.3-8.1,14.4-.1,.1-.2,.1-.3,0s-.1-.2-.1-.3c5.3-11.6,4.9-24.4,.9-34.3,0-.1,0-.2,.1-.3s.2-.1,.3,0c5.2,2.6,8.3,4.2,12.8,10.4-1.4,7.4-.2,11,3.2,17.2-3.9-9.9-1.8-23.9,8.2-29.6,.1-.1,.2,0,.3,.1s.1,.2,0,.3c-3.8,4-6.5,10.6-4.2,17.9-1.5-10.4,7.6-19.1,17.8-19.1,9.6,0,16.2,7.5,15.6,14.9-.5,7.4-5.4,11-9.7,12.5-.1,0-.2,0-.3-.1s-.1-.2,0-.3c5.6-5.7,6.4-16.5-3.6-19.8,5.9,5.1,3.7,16.8-5.7,17.7-.1,0-.2-.1-.3-.2,0-.1,0-.2,.1-.3,2-1.3,3.7-3.8,3.7-6.6,0-4.7-3.4-6.5-5.7-6.5-3.4,0-6.3,3.3-6.3,8.2,0,5.8,5.3,10.7,12,11.4,6.6,.7,12.8-2.2,15.8-6.5,.1-.1,.2-.1,.3-.1,.1,.1,.2,.2,.1,.3-3,11.7-16.8,16.9-26.9,9.5,6.6,7.5,17,7.6,25.7-.1,.1-.1,.2-.1,.3,0,.1,.1,.1,.2,.1,.3-2.7,5.4-9.3,11.8-18.6,10.9-8.6-.9-13.5-9-14.5-15.7-.6,8.5,1.4,14.5,8.8,20.1,.1,.1,.1,.2,.1,.3s-.2,.2-.3,.1c-6.8-2-12.2-5.4-15-12.5,0,6.2,2.1,12.4,7.5,16.5,.1,.1,.1,.2,.1,.3-.1,.1-.2,.2-.3,.1-3.5-1-6.2-2.5-8.1-5.2-1.3,11.1-6.5,17.7-12.5,17.7-4.1,0-7.2-3-7.2-7.9-.1-2.4,1.4-6.4,4.7-8.6h0ZM60.9,18.6c3.2-3.9,9.5-5.4,16.4-4-.5-4.3,.3-8.8,1.6-11.5,.1-.1,.2-.2,.3-.1,.1,0,.2,.1,.2,.3-.4,8.8,4.6,15.8,13.4,18.9-6.9-4.8-8.9-14.2-5.6-19.1,.1-.1,.2-.1,.3-.1s.2,.2,.2,.3c-.4,2.1,.6,4.7,2.7,6.7,2.9,2.8,6.8,3.5,8.8,1.4,2-2,1.2-5.9-1.7-8.8-1.1-1-2.3-1.8-3.4-2.2-.1,0-.2-.2-.2-.3s.1-.2,.2-.2c6.4-.6,10.8,3.3,13.5,7.9,2.8,4.7,7.6,8.4,13.2,7.7,.1,0,.2,.1,.3,.2,0,.1,0,.2-.1,.3-2.8,1.7-5.9,2.4-9.9,1.1,5.8,4.9,14,7.7,21.8,5.2,.1,0,.2,0,.3,.1s.1,.2,0,.3c-5.9,6.6-17.7,6.7-25.1,1.4,3,4.3,7.1,7.5,14.3,8.5,.1,0,.2,.1,.2,.2s-.1,.2-.2,.3c-8.3,3.1-16.6,0-23.4-8.2,3,6.4,7.9,11.5,14.8,14,.1,0,.2,.2,.2,.3s-.1,.2-.2,.2c-3.9,.1-7.5-.9-12.3-3.6,3.5,5.7,2.7,15.6-2.4,22.3-.1,.1-.2,.1-.3,.1s-.2-.2-.1-.3c1.2-7.2-1.3-15.3-5.6-19.6,2.2,7.6,0,14.6-5.9,19.6-.1,.1-.2,.1-.3,0-.1,0-.1-.1-.2-.2-1.2-9.4-11.8-19-20.6-19.8-.1,0-.2-.1-.2-.2s.1-.2,.2-.3c4.3-1,8.7-.5,12.4,1-2.7-2.9-5.9-5.1-9.6-6.2-.1,0-.2-.2-.2-.3s.1-.2,.2-.2c4.5-.3,8.9,1,12.7,3.5-4.4-6.6-11-11.5-19.4-13.5-.1,0-.2-.1-.2-.3,0-.1,.1-.2,.2-.2,11.9-1.3,21.7,3.3,28.2,11.9-1.6-4.9-6.4-9.8-12.9-12.6-5.8-2.5-11.8-2.9-16.4-1.5-.1,0-.2,0-.3-.1,0-.1,0-.2,.1-.3Zm52.9,75.6c-4.8-10.5-4.5-18.7-.6-29.1,0-.1,.2-.2,.3-.2s.2,.1,.2,.3c-.6,12.6,2.8,21.7,10.3,27.8-8.2-9.9-4.4-29.6,8.8-29.6,9.6,0,17.5,8,19.5,17.5,0,.1,0,.2-.2,.3-.1,0-.2,0-.3-.1-2.8-4.8-7.4-7.9-12.5-7.9-8.1,0-10.5,6.5-10.5,11,0,6.2,4.9,11.3,8.7,11.3,3.4,0,5-2.8,5-4.9,0-3.9-3-7.2-6.4-8.2-.1,0-.2-.2-.2-.3s.1-.2,.2-.2c4.1,0,7.6,1.9,9.6,5.6,.3-2.9,.3-4.7-.6-7.7,0-.1,0-.2,.1-.3s.2,0,.3,.1c7.4,9.4,3.8,25.6-2,32.4,5.5-4,10.4-12.6,10.3-24.4,0-.1,.1-.2,.2-.2s.2,0,.3,.2c4.1,10.3,1.9,29.2-9.3,39.9,2.9,.4,5.9,.3,9.1-.7,.1,0,.2,0,.3,.1s0,.2-.1,.3c-4.1,3.5-9.8,4.5-15.3,4.5,4.7-5.5,3.1-16.6-4.4-16.6-5.3,0-7.8,8.3-3.6,12.8,.1,.1,.1,.2,0,.3s-.2,.1-.3,.1c-4.8-1.7-9.9-5.8-9.9-11s4.8-9.4,11.8-9.1c-8.8-2.5-18.1,.3-22.9,6.3-.1,.1-.2,.1-.3,.1-.1-.1-.2-.2-.1-.3,2.8-10.7,12-15.2,23.4-13.7-9.3-3.8-23.2-.5-29.4,7.3-.1,.1-.2,.1-.3,.1s-.2-.2-.1-.3c1.7-6.6,5.2-11.6,10.9-13.5h0Z"/></g><g><path class="cls-15" d="M-20.9,74.9c0,.1,.1,.2,.2,.2,12.9,.1,24.8,3.3,34,11.5-8-5.6-22.9-7.5-31.5-3.6-.1,0-.2,.2-.1,.3,0,.1,.1,.2,.3,.2,10.7-.3,19.3,3,26,9-6.9,.4-12.6,4.7-12.6,9.8,0,.1,.1,.2,.2,.2s.2,0,.3-.1c1.1-2.5,4.7-3.8,8.6-2.9,4.2,1,7,4.2,6.3,7.2-.5,2-2.4,3.4-5,3.8-.1,0-.2,.1-.2,.3,0,.1,.1,.2,.2,.2,1.1,.1,2.2,.1,3.3,0,6.5-.6,11.5-4.6,11.9-9.2,4.7,.5,8.9,3.2,10.4,6.8,0,.1,.2,.2,.3,.2s.2-.1,.2-.2c.4-4.8-1.3-7.8-5-10.9,5.4,2.1,11.4,2.2,17.3-.5,.1,0,.2-.2,.1-.3,0-.1-.1-.2-.2-.2-4.9-.2-8.4-1.8-11.7-5.1,18.3,5.1,33.1-6.2,28-23.1,0-.1-.1-.2-.3-.2-.1,0-.2,.1-.2,.2-.9,9.7-7.7,16.1-17.9,17.1,5.4-2.1,11-7,11.6-15.5,0-.1-.1-.2-.2-.3-.1,0-.2,0-.3,.1-2.8,6.2-8.3,9.3-14.2,9.8,6.3-2.6,10.4-8.6,11.6-16.4,0-.1-.1-.2-.2-.3-.1,0-.2,0-.3,.1-3.9,7.6-12.2,12.8-22.4,8.8-10.6-4.1-15.3-16.4-16.3-25,0-.1-.1-.2-.2-.2s-.2,.1-.3,.2c-3.7,15.7,3.6,31.9,16.6,38.8-7.1-2-13.4-6.3-17-13.4-8.3-1-14-3.9-16.9-9.2-.1-.1-.2-.2-.3-.1-.1,0-.2,.1-.2,.3,.2,2.1,.9,6.3,4.1,8.3-7,0-12.5,.9-17.8,3-.2,0-.2,.2-.2,.3ZM8.6,21.4c-.1,.1-.2,.1-.3,0s-.1-.2,0-.3c1.6-2.8,.1-6.8-3.1-6.8C-.5,14.3-3.3,25.1-2.4,34.9-.2,29.1,1.6,26.8,4.9,24.1c.1-.1,.2-.1,.3,0s.1,.2,.1,.3C.4,33.5-.6,40.5-.6,48.5c1.5-6,3.2-9.3,8.1-14.4,.1-.1,.2-.1,.3,0s.1,.2,.1,.3c-5.3,11.6-4.9,24.4-.9,34.3,0,.1,0,.2-.1,.3s-.2,.1-.3,0c-5.2-2.6-8.3-4.2-12.8-10.4,1.4-7.4,.2-11-3.2-17.2,3.9,9.9,1.8,23.9-8.2,29.6-.1,.1-.2,0-.3-.1-.1-.1-.1-.2,0-.3,3.8-4,6.5-10.6,4.2-17.9,1.5,10.4-7.6,19.1-17.8,19.1-9.6,0-16.2-7.5-15.6-14.9,.5-7.4,5.4-11,9.7-12.5,.1,0,.2,0,.3,.1s0,.2,0,.3c-5.6,5.7-6.4,16.5,3.6,19.8-5.9-5.1-3.7-16.8,5.7-17.7,.1,0,.2,.1,.3,.2,0,.1,0,.2-.1,.3-2,1.3-3.7,3.8-3.7,6.6,0,4.7,3.4,6.5,5.7,6.5,3.4,0,6.3-3.3,6.3-8.2,0-5.8-5.3-10.7-12-11.4-6.6-.7-12.8,2.2-15.7,6.5-.1,.1-.2,.1-.3,.1-.3-.3-.3-.4-.3-.5,3-11.7,16.8-16.9,26.9-9.5-6.6-7.5-17-7.6-25.7,.1-.1,.1-.2,.1-.3,0s-.1-.2-.1-.3c2.7-5.4,9.3-11.8,18.6-10.9,8.6,.9,13.5,9,14.5,15.7,.6-8.5-1.4-14.5-8.8-20.1-.1-.1-.1-.2-.1-.3,.1-.1,.2-.2,.3-.1,6.8,2,12.2,5.4,15,12.5,0-6.2-2.1-12.4-7.5-16.5-.1-.1-.1-.2-.1-.3,.1-.1,.2-.2,.3-.1,3.5,1,6.2,2.5,8.1,5.2C-5.2,11.3,0,4.7,6,4.7c4.1,0,7.2,3,7.2,7.9,.2,2.6-1.3,6.6-4.6,8.8ZM107.8,113c-3.2,3.9-9.5,5.4-16.4,4,.5,4.3-.3,8.8-1.6,11.5-.1,.1-.2,.2-.3,.1-.1,0-.2-.1-.2-.3,.4-8.8-4.6-15.8-13.4-18.9,6.9,4.8,8.9,14.2,5.6,19.1-.1,.1-.2,.1-.3,.1s-.2-.2-.2-.3c.4-2.1-.6-4.7-2.7-6.7-2.9-2.8-6.8-3.5-8.8-1.4-2,2-1.2,5.9,1.7,8.8,1.1,1,2.3,1.8,3.4,2.2,.1,0,.2,.2,.2,.3s-.1,.2-.2,.2c-6.4,.6-10.8-3.3-13.5-7.9-2.8-4.7-7.6-8.4-13.2-7.7-.1,0-.2-.1-.3-.2,0-.1,0-.2,.1-.3,2.8-1.7,5.9-2.4,9.9-1.1-5.8-4.9-14-7.7-21.8-5.2-.1,0-.2,0-.3-.1-.1-.1-.1-.2,0-.3,5.9-6.6,17.7-6.7,25.1-1.4-3-4.3-7.1-7.5-14.3-8.5-.1,0-.2-.1-.2-.2s.1-.2,.2-.3c8.3-3.1,16.6,0,23.4,8.2-3-6.4-7.9-11.5-14.8-14-.1,0-.2-.2-.2-.3s.1-.2,.2-.2c3.9-.1,7.5,.9,12.3,3.6-3.5-5.7-2.7-15.6,2.4-22.3,.1-.1,.2-.1,.3-.1s.2,.2,.1,.3c-1.2,7.2,1.3,15.3,5.6,19.6-2.2-7.6,0-14.6,5.9-19.6,.1-.1,.2-.1,.3,0,.1,0,.1,.1,.2,.2,1.2,9.4,11.8,19,20.6,19.8,.1,0,.2,.1,.2,.2s-.1,.2-.2,.3c-4.3,1-8.7,.5-12.4-1,2.7,2.9,5.9,5.1,9.6,6.2,.1,0,.2,.2,.2,.3s-.1,.2-.2,.2c-4.5,.3-8.9-1-12.7-3.5,4.4,6.6,11,11.5,19.4,13.5,.1,0,.2,.1,.2,.3,0,.1-.1,.2-.2,.2-11.9,1.3-21.7-3.3-28.2-11.9,1.6,4.9,6.4,9.8,12.9,12.6,5.8,2.5,11.8,2.9,16.4,1.5,.1,0,.2,0,.3,.1,0,.1,0,.2-.1,.3ZM54.9,37.5c4.8,10.5,4.5,18.7,.6,29.1,0,.1-.2,.2-.3,.2s-.2-.1-.2-.3c.6-12.6-2.8-21.7-10.3-27.8,8.2,9.9,4.4,29.6-8.8,29.6-9.6,0-17.5-8-19.5-17.5,0-.1,0-.2,.2-.3,.1,0,.2,0,.3,.1,2.8,4.8,7.4,7.9,12.5,7.9,8.1,0,10.5-6.5,10.5-11,0-6.2-4.9-11.3-8.7-11.3-3.4,0-5,2.8-5,4.9,0,3.9,3,7.2,6.4,8.2,.1,0,.2,.2,.2,.3s-.1,.2-.2,.2c-4.1,0-7.6-1.9-9.6-5.6-.3,2.9-.3,4.7,.6,7.7,0,.1,0,.2-.1,.3s-.2,0-.3-.1c-7.4-9.4-3.8-25.6,2-32.4-5.5,4-10.4,12.6-10.3,24.4,0,.1-.1,.2-.2,.2s-.2,0-.3-.2c-4.1-10.3-1.9-29.2,9.3-39.9-2.9-.4-5.9-.3-9.1,.7-.1,0-.2,0-.3-.1s0-.2,.1-.3C18.5,1,24.2,0,29.7,0c-4.7,5.5-3.1,16.6,4.4,16.6,5.3,0,7.8-8.3,3.6-12.8-.1-.1-.1-.2,0-.3,.1-.1,.2-.1,.3-.1,4.8,1.7,9.9,5.8,9.9,11s-4.8,9.4-11.8,9.1c8.8,2.5,18.1-.3,22.9-6.3,.1-.1,.2-.1,.3-.1,.1,.1,.2,.2,.1,.3-2.8,10.7-12,15.2-23.4,13.7,9.3,3.8,23.2,.5,29.4-7.3,.1-.1,.2-.1,.3-.1,.1,.1,.2,.2,.1,.3-1.6,6.6-5.1,11.5-10.9,13.5Z"/><path class="cls-14" d="M81.3,56.8c0-.1-.1-.2-.2-.2-12.9-.1-24.8-3.3-34-11.5,8,5.6,22.9,7.5,31.5,3.6,.1-.1,.2-.2,.1-.3,0-.1-.1-.2-.3-.2-10.7,.3-19.3-3-26-9,6.9-.4,12.6-4.7,12.6-9.8,0-.1-.1-.2-.2-.2s-.2,0-.3,.1c-1.1,2.5-4.7,3.8-8.6,2.9-4.2-1-7-4.2-6.3-7.2,.5-2,2.4-3.4,5-3.8,.1,0,.2-.1,.2-.3,0-.1-.1-.2-.2-.2-1.1-.1-2.2-.1-3.3,0-6.5,.6-11.5,4.6-11.9,9.2-4.7-.5-8.9-3.2-10.4-6.8,0-.1-.2-.2-.3-.2s-.2,.1-.2,.2c-.4,4.8,1.3,7.8,5,10.9-5.4-2.1-11.4-2.2-17.3,.5-.1,.1-.2,.2-.1,.3,0,.1,.1,.2,.2,.2,4.9,.2,8.4,1.8,11.7,5.1C9.7,35-5.1,46.3,0,63.2c0,.1,.1,.2,.3,.2,.1,0,.2-.1,.2-.2,.9-9.7,7.7-16.1,17.9-17.1-5.4,2.1-11,7-11.6,15.5,0,.1,.1,.2,.2,.3,.1,0,.2,0,.3-.1,2.8-6.2,8.3-9.3,14.2-9.8-6.3,2.6-10.4,8.6-11.6,16.4,0,.1,.1,.2,.2,.3,.1,0,.2,0,.3-.1,3.9-7.6,12.2-12.8,22.4-8.8,10.6,4.1,15.3,16.4,16.3,25,0,.1,.1,.2,.2,.2s.2-.1,.3-.2c3.7-15.7-3.6-31.9-16.6-38.8,7.1,2,13.4,6.3,17,13.4,8.3,1,14,3.9,16.9,9.2,.1,.1,.2,.2,.3,.1,.1,0,.2-.1,.2-.3-.2-2.1-.9-6.3-4.1-8.3,7,0,12.5-.9,17.8-3,.1-.1,.2-.2,.2-.3Zm-29.5,53.4c.1-.1,.2-.1,.3,0,.1,.1,.1,.2,0,.3-1.6,2.8-.1,6.8,3.1,6.8,5.7,0,8.5-10.8,7.6-20.6-2.2,5.8-4,8.1-7.3,10.8-.1,.1-.2,.1-.3,0-.1-.1-.1-.2-.1-.3,4.9-9.1,5.9-16.1,5.9-24.1-1.5,6-3.2,9.3-8.1,14.4-.1,.1-.2,.1-.3,0-.1-.1-.1-.2-.1-.3,5.3-11.6,4.9-24.4,.9-34.3,0-.1,0-.2,.1-.3s.2-.1,.3,0c5.2,2.6,8.3,4.2,12.8,10.4-1.4,7.4-.2,11,3.2,17.2-3.9-9.9-1.8-23.9,8.2-29.6,.1-.1,.2,0,.3,.1,.1,.1,.1,.2,0,.3-3.8,4-6.5,10.6-4.2,17.9-1.5-10.4,7.6-19.1,17.8-19.1,9.6,0,16.2,7.5,15.6,14.9-.5,7.4-5.4,11-9.7,12.5-.1,0-.2,0-.3-.1s-.1-.2,0-.3c5.6-5.7,6.4-16.5-3.6-19.8,5.9,5.1,3.7,16.8-5.7,17.7-.1,0-.2-.1-.3-.2,0-.1,0-.2,.1-.3,2-1.3,3.7-3.8,3.7-6.6,0-4.7-3.4-6.5-5.7-6.5-3.4,0-6.3,3.3-6.3,8.2,0,5.8,5.3,10.7,12,11.4,6.6,.7,12.8-2.2,15.8-6.5,.1-.1,.2-.1,.3-.1,.1,.1,.2,.2,.1,.3-3,11.7-16.8,16.9-26.9,9.5,6.6,7.5,17,7.6,25.7-.1,.1-.1,.2-.1,.3,0s.1,.2,.1,.3c-2.7,5.4-9.3,11.8-18.6,10.9-8.6-.9-13.5-9-14.5-15.7-.6,8.5,1.4,14.5,8.8,20.1,.1,.1,.1,.2,.1,.3-.1,.1-.2,.2-.3,.1-6.8-2-12.2-5.4-15-12.5,0,6.2,2.1,12.4,7.5,16.5,.1,.1,.1,.2,.1,.3-.1,.1-.2,.2-.3,.1-3.5-1-6.2-2.5-8.1-5.2-1.3,11.1-6.5,17.7-12.5,17.7-4.1,0-7.2-3-7.2-7.9-.1-2.4,1.4-6.4,4.7-8.6h0ZM-47.4,18.6c3.2-3.9,9.5-5.4,16.4-4-.5-4.3,.3-8.8,1.6-11.5,.1-.1,.2-.2,.3-.1,.1,0,.2,.1,.2,.3-.4,8.8,4.6,15.8,13.4,18.9-6.9-4.8-8.9-14.2-5.6-19.1,.1-.1,.2-.1,.3-.1s.2,.2,.2,.3c-.4,2.1,.6,4.7,2.7,6.7,2.9,2.8,6.8,3.5,8.8,1.4,2-2,1.2-5.9-1.7-8.8-1.1-1-2.3-1.8-3.4-2.2-.1,0-.2-.2-.2-.3s.1-.2,.2-.2C-7.8-.7-3.4,3.2-.7,7.8c2.8,4.7,7.6,8.4,13.2,7.7,.1,0,.2,.1,.3,.2,0,.1,0,.2-.1,.3-2.8,1.7-5.9,2.4-9.9,1.1,5.8,4.9,14,7.7,21.8,5.2,.1,0,.2,0,.3,.1s.1,.2,0,.3c-5.9,6.6-17.7,6.7-25.1,1.4,3,4.3,7.1,7.5,14.3,8.5,.1,0,.2,.1,.2,.2s-.1,.2-.2,.3c-8.3,3.1-16.6,0-23.4-8.2,3,6.4,7.9,11.5,14.8,14,.1,0,.2,.2,.2,.3s-.1,.2-.2,.2c-3.9,.1-7.5-.9-12.3-3.6,3.5,5.7,2.7,15.6-2.4,22.3-.1,.1-.2,.1-.3,.1s-.2-.2-.1-.3c1.2-7.2-1.3-15.3-5.6-19.6,2.2,7.6,0,14.6-5.9,19.6-.1,.1-.2,.1-.3,0-.1,0-.1-.1-.2-.2-1.2-9.4-11.8-19-20.6-19.8-.1,0-.2-.1-.2-.2s.1-.2,.2-.3c4.3-1,8.7-.5,12.4,1-2.7-2.9-5.9-5.1-9.6-6.2-.1,0-.2-.2-.2-.3s.1-.2,.2-.2c4.5-.3,8.9,1,12.7,3.5-4.4-6.6-11-11.5-19.4-13.5-.1,0-.2-.1-.2-.3,0-.1,.1-.2,.2-.2,11.9-1.3,21.7,3.3,28.2,11.9-1.6-4.9-6.4-9.8-12.9-12.6-5.8-2.5-11.8-2.9-16.4-1.5-.1,0-.2,0-.3-.1,0-.1,0-.2,.1-.3ZM5.5,94.2c-4.8-10.5-4.5-18.7-.6-29.1,0-.1,.2-.2,.3-.2s.2,.1,.2,.3c-.6,12.6,2.8,21.7,10.3,27.8-8.2-9.9-4.4-29.6,8.8-29.6,9.6,0,17.5,8,19.5,17.5,0,.1,0,.2-.2,.3-.1,0-.2,0-.3-.1-2.8-4.8-7.4-7.9-12.5-7.9-8.1,0-10.5,6.5-10.5,11,0,6.2,4.9,11.3,8.7,11.3,3.4,0,5-2.8,5-4.9,0-3.9-3-7.2-6.4-8.2-.1,0-.2-.2-.2-.3s.1-.2,.2-.2c4.1,0,7.6,1.9,9.6,5.6,.3-2.9,.3-4.7-.6-7.7,0-.1,0-.2,.1-.3s.2,0,.3,.1c7.4,9.4,3.8,25.6-2,32.4,5.5-4,10.4-12.6,10.3-24.4,0-.1,.1-.2,.2-.2s.2,0,.3,.2c4.1,10.3,1.9,29.2-9.3,39.9,2.9,.4,5.9,.3,9.1-.7,.1,0,.2,0,.3,.1,.1,.1,0,.2-.1,.3-4.1,3.5-9.8,4.5-15.3,4.5,4.7-5.5,3.1-16.6-4.4-16.6-5.3,0-7.8,8.3-3.6,12.8,.1,.1,.1,.2,0,.3s-.2,.1-.3,.1c-4.8-1.7-9.9-5.8-9.9-11s4.8-9.4,11.8-9.1c-8.8-2.5-18.1,.3-22.9,6.3-.1,.1-.2,.1-.3,.1-.1-.1-.2-.2-.1-.3,2.8-10.7,12-15.2,23.4-13.7-9.3-3.8-23.2-.5-29.4,7.3-.1,.1-.2,.1-.3,.1s-.2-.2-.1-.3c1.6-6.6,5.1-11.6,10.9-13.5h0Z"/></g></g></g></g></g></pattern><linearGradient id="linear-gradient" x1="944.5" y1="460" x2="1038.5" y2="460" gradientTransform="translate(0 768) scale(1 -1)" gradientUnits="userSpaceOnUse"><stop offset="0" stop-color="#fff"/><stop offset="1" stop-color="#000"/></linearGradient><linearGradient id="linear-gradient-2" x1="947.5" y1="328.5" x2="1037.5" y2="328.5" gradientTransform="translate(0 768) scale(1 -1)" gradientUnits="userSpaceOnUse"><stop offset="0" stop-color="#fff"/><stop offset="1" stop-color="#000"/></linearGradient></defs><g id="Layer_2"><rect class="cls-12" x=".5" y="-.5" width="1366" height="768"/><path class="cls-9" d="M1007.5,544.5h-439c-3.3,0-6-2.7-6-6v-18c0-3.3,2.7-6,6-6h439c3.3,0,6,2.7,6,6v18c0,3.3-2.7,6-6,6Z"/><path class="cls-9" d="M1034.3,522.5h-508.6c-11.7,0-21.2-9.5-21.2-21.2V195.7c0-11.7,9.5-21.2,21.2-21.2h508.5c11.7,0,21.2,9.5,21.2,21.2V501.2c.1,11.8-9.4,21.3-21.1,21.3Z"/><path class="cls-2" d="M1030.9,263.5h-43.8c-2.5,0-4.6-2.1-4.6-4.6v-4.8c0-2.5,2.1-4.6,4.6-4.6h43.8c2.5,0,4.6,2.1,4.6,4.6v4.8c0,2.5-2.1,4.6-4.6,4.6Z"/><path class="cls-2" d="M1030.7,263.3h-43.8c-2.5,0-4.6-2.1-4.6-4.6v-4.8c0-2.5,2.1-4.6,4.6-4.6h43.8c2.5,0,4.6,2.1,4.6,4.6v4.8c0,2.5-2.1,4.6-4.6,4.6Z"/><path class="cls-2" d="M1030.8,263.4h-43.8c-2.5,0-4.6-2.1-4.6-4.6v-4.8c0-2.5,2.1-4.6,4.6-4.6h43.8c2.5,0,4.6,2.1,4.6,4.6v4.8c0,2.5-2.1,4.6-4.6,4.6Z"/><path class="cls-2" d="M1030.6,263.2h-43.8c-2.5,0-4.6-2.1-4.6-4.6v-4.8c0-2.5,2.1-4.6,4.6-4.6h43.8c2.5,0,4.6,2.1,4.6,4.6v4.8c0,2.6-2.1,4.6-4.6,4.6Z"/><path class="cls-11" d="M1027.8,395.5h-72.6c-5.9,0-10.7-4.8-10.7-10.7V231.2c0-5.9,4.8-10.7,10.7-10.7h72.6c5.9,0,10.7,4.8,10.7,10.7v153.6c0,5.9-4.8,10.7-10.7,10.7Z"/><path class="cls-6" d="M1024.4,266h-43.8c-2.5,0-4.6-2.1-4.6-4.6v-4.8c0-2.5,2.1-4.6,4.6-4.6h43.8c2.5,0,4.6,2.1,4.6,4.6v4.8c0,2.5-2.1,4.6-4.6,4.6Z"/><path class="cls-6" d="M1024.4,288h-43.8c-2.5,0-4.6-2.1-4.6-4.6v-4.8c0-2.5,2.1-4.6,4.6-4.6h43.8c2.5,0,4.6,2.1,4.6,4.6v4.8c0,2.5-2.1,4.6-4.6,4.6Z"/><path class="cls-6" d="M1024.4,311h-43.8c-2.5,0-4.6-2.1-4.6-4.6v-4.8c0-2.5,2.1-4.6,4.6-4.6h43.8c2.5,0,4.6,2.1,4.6,4.6v4.8c0,2.5-2.1,4.6-4.6,4.6Z"/><ellipse class="cls-10" cx="966.5" cy="365" rx="15" ry="12.5"/><path class="cls-3" d="M1027.6,479.5h-70.2c-5.5,0-9.9-4.4-9.9-9.9v-60.2c0-5.5,4.4-9.9,9.9-9.9h70.2c5.5,0,9.9,4.4,9.9,9.9v60.2c0,5.5-4.4,9.9-9.9,9.9Z"/><rect class="cls-4" x="948" y="443.5" width="89" height="2"/><rect class="cls-4" x="948.5" y="426.2" width="89" height="2"/><rect class="cls-4" x="948.5" y="414.2" width="89" height="2"/><rect class="cls-4" x="948.5" y="420.2" width="89" height="2"/><rect class="cls-4" x="948.5" y="432.5" width="89" height="2"/><rect class="cls-4" x="947.5" y="437.5" width="89" height="2"/><rect class="cls-4" x="947.5" y="449.5" width="89" height="2"/><rect class="cls-4" x="948.5" y="455.5" width="89" height="2"/><rect class="cls-4" x="948.5" y="461.5" width="89" height="2"/><rect class="cls-4" x="947.5" y="407.5" width="89" height="2"/><rect class="cls-4" x="947.5" y="467.5" width="89" height="2"/><path class="cls-8" d="M1204.1,788.5H413.9c-15.1,0-27.4-12.3-27.4-27.4v-189.2c0-15.1,12.3-27.4,27.4-27.4h790.2c15.1,0,27.4,12.3,27.4,27.4v189.2c0,15.1-12.3,27.4-27.4,27.4Z"/><rect class="cls-7" x="423.5" y="577.5" width="782" height="79"/><rect class="cls-7" x="423.5" y="673.5" width="782" height="79"/><rect class="cls-7" x="759.5" y="617.5" width="86" height="12"/><rect class="cls-7" x="759.5" y="712.5" width="86" height="12"/><rect class="cls-5" x="96.5" y="86.4" width="327" height="393.1"/><rect class="cls-13" x="117.2" y="112.6" width="286.3" height="343.9"/></g></svg>