<?xml version="1.0" encoding="utf-8"?>
<!-- Generator: Adobe Illustrator 26.3.1, SVG Export Plug-In . SVG Version: 6.00 Build 0)  -->
<svg version="1.1" id="Layer_1" xmlns="http://www.w3.org/2000/svg" xmlns:xlink="http://www.w3.org/1999/xlink" x="0px" y="0px"
	 viewBox="0 0 1366 768" style="enable-background:new 0 0 1366 768;" xml:space="preserve">
<style type="text/css">
	.st0{fill:none;}
	.st1{fill:#00427E;}
	.st2{opacity:0.4;fill:#9CDBF8;enable-background:new    ;}
	
		.st3{opacity:0.37;fill:url(#SVGID_00000158005643743151033960000011001004177348889491_);stroke:#000000;stroke-miterlimit:10;enable-background:new    ;}
	.st4{fill:#E5E5E5;stroke:#000000;stroke-miterlimit:10;}
	.st5{fill:none;stroke:#000000;stroke-miterlimit:10;}
	.st6{fill:url(#SVGID_00000178922515920070090040000006483478318789266623_);stroke:#000000;stroke-miterlimit:10;}
	.st7{fill:#808080;stroke:#000000;stroke-width:0.25;stroke-miterlimit:10;}
	.st8{opacity:0.78;stroke:#000000;stroke-miterlimit:10;enable-background:new    ;}
	
		.st9{opacity:0.87;fill:url(#SVGID_00000129926104779570894670000006483388424798772107_);stroke:#000000;stroke-miterlimit:10;enable-background:new    ;}
	.st10{stroke:#000000;stroke-miterlimit:10;}
	.st11{fill:#F6921E;stroke:#000000;stroke-miterlimit:10;}
	.st12{fill:#F05A24;stroke:#000000;stroke-miterlimit:10;}
	.st13{fill:#FFDC94;stroke:#000000;stroke-width:0.5;stroke-miterlimit:10;}
	.st14{opacity:0.6;fill:#A5654E;enable-background:new    ;}
</style>
<pattern  y="768" width="108.3" height="109.6" patternUnits="userSpaceOnUse" id="SVGID_1_" viewBox="47.6 -131.8 108.3 109.6" style="overflow:visible;">
	<g>
		<rect x="47.6" y="-131.8" class="st0" width="108.3" height="109.6"/>
		<g>
			<rect x="47.6" y="-131.8" class="st0" width="108.3" height="109.6"/>
			<g>
				<rect x="47.6" y="-131.8" class="st0" width="108.3" height="109.6"/>
				<g>
					<rect x="47.6" y="-131.8" class="st0" width="108.3" height="109.6"/>
					<g>
						<path class="st1" d="M135-166.6c0,0.1,0.1,0.2,0.2,0.2c12.9,0.1,24.8,3.3,34,11.5c-8-5.6-22.9-7.5-31.5-3.6
							c-0.1,0-0.2,0.2-0.1,0.3c0,0.1,0.1,0.2,0.3,0.2c10.7-0.3,19.3,3,26,9c-6.9,0.4-12.6,4.7-12.6,9.8c0,0.1,0.1,0.2,0.2,0.2
							c0.1,0,0.2,0,0.3-0.1c1.1-2.5,4.7-3.8,8.6-2.9c4.2,1,7,4.2,6.3,7.2c-0.5,2-2.4,3.4-5,3.8c-0.1,0-0.2,0.1-0.2,0.3
							c0,0.1,0.1,0.2,0.2,0.2c1.1,0.1,2.2,0.1,3.3,0c6.5-0.6,11.5-4.6,11.9-9.2c4.7,0.5,8.9,3.2,10.4,6.8c0,0.1,0.2,0.2,0.3,0.2
							s0.2-0.1,0.2-0.2c0.4-4.8-1.3-7.8-5-10.9c5.4,2.1,11.4,2.2,17.3-0.5c0.1,0,0.2-0.2,0.1-0.3c0-0.1-0.1-0.2-0.2-0.2
							c-4.9-0.2-8.4-1.8-11.7-5.1c18.3,5.1,33.1-6.2,28-23.1c0-0.1-0.1-0.2-0.3-0.2c-0.1,0-0.2,0.1-0.2,0.2
							c-0.9,9.7-7.7,16.1-17.9,17.1c5.4-2.1,11-7,11.6-15.5c0-0.1-0.1-0.2-0.2-0.3c-0.1,0-0.2,0-0.3,0.1c-2.8,6.2-8.3,9.3-14.2,9.8
							c6.3-2.6,10.4-8.6,11.6-16.4c0-0.1-0.1-0.2-0.2-0.3c-0.1,0-0.2,0-0.3,0.1c-3.9,7.6-12.2,12.8-22.4,8.8
							c-10.6-4.1-15.3-16.4-16.3-25c0-0.1-0.1-0.2-0.2-0.2c-0.1,0-0.2,0.1-0.3,0.2c-3.7,15.7,3.6,31.9,16.6,38.8
							c-7.1-2-13.4-6.3-17-13.4c-8.3-1-14-3.9-16.9-9.2c-0.1-0.1-0.2-0.2-0.3-0.1c-0.1,0-0.2,0.1-0.2,0.3c0.2,2.1,0.9,6.3,4.1,8.3
							c-7,0-12.5,0.9-17.8,3C135.1-166.8,135-166.7,135-166.6L135-166.6z M164.5-220c-0.1,0.1-0.2,0.1-0.3,0c-0.1-0.1-0.1-0.2,0-0.3
							c1.6-2.8,0.1-6.8-3.1-6.8c-5.7,0-8.5,10.8-7.6,20.6c2.2-5.8,4-8.1,7.3-10.8c0.1-0.1,0.2-0.1,0.3,0c0.1,0.1,0.1,0.2,0.1,0.3
							c-4.9,9.1-5.9,16.1-5.9,24.1c1.5-6,3.2-9.3,8.1-14.4c0.1-0.1,0.2-0.1,0.3,0c0.1,0.1,0.1,0.2,0.1,0.3
							c-5.3,11.6-4.9,24.4-0.9,34.3c0,0.1,0,0.2-0.1,0.3s-0.2,0.1-0.3,0c-5.2-2.6-8.3-4.2-12.8-10.4c1.4-7.4,0.2-11-3.2-17.2
							c3.9,9.9,1.8,23.9-8.2,29.6c-0.1,0.1-0.2,0-0.3-0.1c-0.1-0.1-0.1-0.2,0-0.3c3.8-4,6.5-10.6,4.2-17.9
							c1.5,10.4-7.6,19.1-17.8,19.1c-9.6,0-16.2-7.5-15.6-14.9c0.5-7.4,5.4-11,9.7-12.5c0.1,0,0.2,0,0.3,0.1c0.1,0.1,0,0.2,0,0.3
							c-5.6,5.7-6.4,16.5,3.6,19.8c-5.9-5.1-3.7-16.8,5.7-17.7c0.1,0,0.2,0.1,0.3,0.2c0,0.1,0,0.2-0.1,0.3c-2,1.3-3.7,3.8-3.7,6.6
							c0,4.7,3.4,6.5,5.7,6.5c3.4,0,6.3-3.3,6.3-8.2c0-5.8-5.3-10.7-12-11.4c-6.6-0.7-12.8,2.2-15.8,6.5c-0.1,0.1-0.2,0.1-0.3,0.1
							c-0.1-0.1-0.2-0.2-0.1-0.3c3-11.7,16.8-16.9,26.9-9.5c-6.6-7.5-17-7.6-25.7,0.1c-0.1,0.1-0.2,0.1-0.3,0
							c-0.1-0.1-0.1-0.2-0.1-0.3c2.7-5.4,9.3-11.8,18.6-10.9c8.6,0.9,13.5,9,14.5,15.7c0.6-8.5-1.4-14.5-8.8-20.1
							c-0.1-0.1-0.1-0.2-0.1-0.3c0.1-0.1,0.2-0.2,0.3-0.1c6.8,2,12.2,5.4,15,12.5c0-6.2-2.1-12.4-7.5-16.5c-0.1-0.1-0.1-0.2-0.1-0.3
							c0-0.1,0.2-0.2,0.3-0.1c3.5,1,6.2,2.5,8.1,5.2c1.3-11.1,6.5-17.7,12.5-17.7c4.1,0,7.2,3,7.2,7.9
							C169.3-226.2,167.8-222.2,164.5-220L164.5-220z M263.7-128.4c-3.2,3.9-9.5,5.4-16.4,4c0.5,4.3-0.3,8.8-1.6,11.5
							c-0.1,0.1-0.2,0.2-0.3,0.1c-0.1,0-0.2-0.1-0.2-0.3c0.4-8.8-4.6-15.8-13.4-18.9c6.9,4.8,8.9,14.2,5.6,19.1
							c-0.1,0.1-0.2,0.1-0.3,0.1s-0.2-0.2-0.2-0.3c0.4-2.1-0.6-4.7-2.7-6.7c-2.9-2.8-6.8-3.5-8.8-1.4c-2,2-1.2,5.9,1.7,8.8
							c1.1,1,2.3,1.8,3.4,2.2c0.1,0,0.2,0.2,0.2,0.3s-0.1,0.2-0.2,0.2c-6.4,0.6-10.8-3.3-13.5-7.9c-2.8-4.7-7.6-8.4-13.2-7.7
							c-0.1,0-0.2-0.1-0.3-0.2c0-0.1,0-0.2,0.1-0.3c2.8-1.7,5.9-2.4,9.9-1.1c-5.8-4.9-14-7.7-21.8-5.2c-0.1,0-0.2,0-0.3-0.1
							c-0.1-0.1-0.1-0.2,0-0.3c5.9-6.6,17.7-6.7,25.1-1.4c-3-4.3-7.1-7.5-14.3-8.5c-0.1,0-0.2-0.1-0.2-0.2c0-0.1,0.1-0.2,0.2-0.3
							c8.3-3.1,16.6,0,23.4,8.2c-3-6.4-7.9-11.5-14.8-14c-0.1,0-0.2-0.2-0.2-0.3s0.1-0.2,0.2-0.2c3.9-0.1,7.5,0.9,12.3,3.6
							c-3.5-5.7-2.7-15.6,2.4-22.3c0.1-0.1,0.2-0.1,0.3-0.1s0.2,0.2,0.1,0.3c-1.2,7.2,1.3,15.3,5.6,19.6c-2.2-7.6,0-14.6,5.9-19.6
							c0.1-0.1,0.2-0.1,0.3,0c0.1,0,0.1,0.1,0.2,0.2c1.2,9.4,11.8,19,20.6,19.8c0.1,0,0.2,0.1,0.2,0.2c0,0.1-0.1,0.2-0.2,0.3
							c-4.3,1-8.7,0.5-12.4-1c2.7,2.9,5.9,5.1,9.6,6.2c0.1,0,0.2,0.2,0.2,0.3s-0.1,0.2-0.2,0.2c-4.5,0.3-8.9-1-12.7-3.5
							c4.4,6.6,11,11.5,19.4,13.5c0.1,0,0.2,0.1,0.2,0.3c0,0.1-0.1,0.2-0.2,0.2c-11.9,1.3-21.7-3.3-28.2-11.9
							c1.6,4.9,6.4,9.8,12.9,12.6c5.8,2.5,11.9,2.9,16.4,1.5c0.1,0,0.2,0,0.3,0.1C263.8-128.6,263.8-128.5,263.7-128.4L263.7-128.4z
							 M210.8-204c4.8,10.5,4.5,18.7,0.6,29.1c0,0.1-0.2,0.2-0.3,0.2s-0.2-0.1-0.2-0.3c0.6-12.6-2.8-21.7-10.3-27.8
							c8.2,9.9,4.4,29.6-8.8,29.6c-9.6,0-17.5-8-19.5-17.5c0-0.1,0-0.2,0.2-0.3c0.1,0,0.2,0,0.3,0.1c2.8,4.8,7.4,7.9,12.5,7.9
							c8.1,0,10.5-6.5,10.5-11c0-6.2-4.9-11.3-8.7-11.3c-3.4,0-5,2.8-5,4.9c0,3.9,3,7.2,6.4,8.2c0.1,0,0.2,0.2,0.2,0.3
							c0,0.1-0.1,0.2-0.2,0.2c-4.1,0-7.6-1.9-9.6-5.6c-0.3,2.9-0.3,4.7,0.6,7.7c0,0.1,0,0.2-0.1,0.3c-0.1,0.1-0.2,0-0.3-0.1
							c-7.4-9.4-3.8-25.6,2-32.4c-5.5,4-10.4,12.6-10.3,24.4c0,0.1-0.1,0.2-0.2,0.2c-0.1,0-0.2,0-0.3-0.2
							c-4.1-10.3-1.9-29.2,9.3-39.9c-2.9-0.4-5.9-0.3-9.1,0.7c-0.1,0-0.2,0-0.3-0.1c-0.1-0.1,0-0.2,0.1-0.3
							c4.1-3.5,9.8-4.5,15.3-4.5c-4.7,5.5-3.1,16.6,4.4,16.6c5.3,0,7.8-8.3,3.6-12.8c-0.1-0.1-0.1-0.2,0-0.3s0.2-0.1,0.3-0.1
							c4.8,1.7,9.9,5.8,9.9,11c0,5.2-4.8,9.4-11.8,9.1c8.8,2.5,18.1-0.3,22.9-6.3c0.1-0.1,0.2-0.1,0.3-0.1c0.1,0.1,0.2,0.2,0.1,0.3
							c-2.8,10.7-12,15.2-23.4,13.7c9.3,3.8,23.2,0.5,29.4-7.3c0.1-0.1,0.2-0.1,0.3-0.1c0.1,0.1,0.2,0.2,0.1,0.3
							C220.1-210.9,216.6-205.9,210.8-204L210.8-204z"/>
						<path class="st2" d="M237.2-184.7c0-0.1-0.1-0.2-0.2-0.2c-12.9-0.1-24.8-3.3-34-11.5c8,5.6,22.9,7.5,31.5,3.6
							c0.1-0.1,0.2-0.2,0.1-0.3c0-0.1-0.1-0.2-0.3-0.2c-10.7,0.3-19.3-3-26-9c6.9-0.4,12.6-4.7,12.6-9.8c0-0.1-0.1-0.2-0.2-0.2
							s-0.2,0-0.3,0.1c-1.1,2.5-4.7,3.8-8.6,2.9c-4.2-1-7-4.2-6.3-7.2c0.5-2,2.4-3.4,5-3.8c0.1,0,0.2-0.1,0.2-0.3
							c0-0.1-0.1-0.2-0.2-0.2c-1.1-0.1-2.2-0.1-3.3,0c-6.5,0.6-11.5,4.6-11.9,9.2c-4.7-0.5-8.9-3.2-10.4-6.8c0-0.1-0.2-0.2-0.3-0.2
							s-0.2,0.1-0.2,0.2c-0.4,4.8,1.3,7.8,5,10.9c-5.4-2.1-11.4-2.2-17.3,0.5c-0.1,0.1-0.2,0.2-0.1,0.3c0,0.1,0.1,0.2,0.2,0.2
							c4.9,0.2,8.4,1.8,11.7,5.1c-18.3-5.1-33.1,6.2-28,23.1c0,0.1,0.1,0.2,0.3,0.2s0.2-0.1,0.2-0.2c0.9-9.7,7.7-16.1,17.9-17.1
							c-5.4,2.1-11,7-11.6,15.5c0,0.1,0.1,0.2,0.2,0.3c0.1,0,0.2,0,0.3-0.1c2.8-6.2,8.3-9.3,14.2-9.8c-6.3,2.6-10.4,8.6-11.6,16.4
							c0,0.1,0.1,0.2,0.2,0.3c0.1,0,0.2,0,0.3-0.1c3.9-7.6,12.2-12.8,22.4-8.8c10.6,4.1,15.3,16.4,16.3,25c0,0.1,0.1,0.2,0.2,0.2
							s0.2-0.1,0.3-0.2c3.7-15.7-3.6-31.9-16.6-38.8c7.1,2,13.4,6.3,17,13.4c8.3,1,14,3.9,16.9,9.2c0.1,0.1,0.2,0.2,0.3,0.1
							c0.1,0,0.2-0.1,0.2-0.3c-0.2-2.1-0.9-6.3-4.1-8.3c7,0,12.5-0.9,17.8-3C237.2-184.5,237.2-184.6,237.2-184.7z M207.7-131.2
							c0.1-0.1,0.2-0.1,0.3,0c0.1,0.1,0.1,0.2,0,0.3c-1.6,2.8-0.1,6.8,3.1,6.8c5.7,0,8.5-10.8,7.6-20.6c-2.2,5.8-4,8.1-7.3,10.8
							c-0.1,0.1-0.2,0.1-0.3,0c-0.1-0.1-0.1-0.2-0.1-0.3c4.9-9.1,5.9-16.1,5.9-24.1c-1.5,6-3.2,9.3-8.1,14.4c-0.1,0.1-0.2,0.1-0.3,0
							c-0.1-0.1-0.1-0.2-0.1-0.3c5.3-11.6,4.9-24.4,0.9-34.3c0-0.1,0-0.2,0.1-0.3c0.1-0.1,0.2-0.1,0.3,0c5.2,2.6,8.3,4.2,12.8,10.4
							c-1.4,7.4-0.2,11,3.2,17.2c-3.9-9.9-1.8-23.9,8.2-29.6c0.1-0.1,0.2,0,0.3,0.1c0.1,0.1,0.1,0.2,0,0.3c-3.8,4-6.5,10.6-4.2,17.9
							c-1.5-10.4,7.6-19.1,17.8-19.1c9.6,0,16.2,7.5,15.6,14.9c-0.5,7.4-5.4,11-9.7,12.5c-0.1,0-0.2,0-0.3-0.1
							c-0.1-0.1-0.1-0.2,0-0.3c5.6-5.7,6.4-16.5-3.6-19.8c5.9,5.1,3.7,16.8-5.7,17.7c-0.1,0-0.2-0.1-0.3-0.2c0-0.1,0-0.2,0.1-0.3
							c2-1.3,3.7-3.8,3.7-6.6c0-4.7-3.4-6.5-5.7-6.5c-3.4,0-6.3,3.3-6.3,8.2c0,5.8,5.3,10.7,12,11.4c6.6,0.7,12.8-2.2,15.8-6.5
							c0.1-0.1,0.2-0.1,0.3-0.1c0.1,0.1,0.2,0.2,0.1,0.3c-3,11.7-16.8,16.9-26.9,9.5c6.6,7.5,17,7.6,25.7-0.1c0.1-0.1,0.2-0.1,0.3,0
							c0.1,0.1,0.1,0.2,0.1,0.3c-2.7,5.4-9.3,11.8-18.6,10.9c-8.6-0.9-13.5-9-14.5-15.7c-0.6,8.5,1.4,14.5,8.8,20.1
							c0.1,0.1,0.1,0.2,0.1,0.3c-0.1,0.1-0.2,0.2-0.3,0.1c-6.8-2-12.2-5.4-15-12.5c0,6.2,2.1,12.4,7.5,16.5c0.1,0.1,0.1,0.2,0.1,0.3
							c-0.1,0.1-0.2,0.2-0.3,0.1c-3.5-1-6.2-2.5-8.1-5.2c-1.3,11.1-6.5,17.7-12.5,17.7c-4.1,0-7.2-3-7.2-7.9
							C202.9-125,204.4-129,207.7-131.2L207.7-131.2z M108.5-222.8c3.2-3.9,9.5-5.4,16.4-4c-0.5-4.3,0.3-8.8,1.6-11.5
							c0.1-0.1,0.2-0.2,0.3-0.1c0.1,0.1,0.2,0.1,0.2,0.3c-0.4,8.8,4.6,15.8,13.4,18.9c-6.9-4.8-8.9-14.2-5.6-19.1
							c0.1-0.1,0.2-0.1,0.3-0.1s0.2,0.2,0.2,0.3c-0.4,2.1,0.6,4.7,2.7,6.7c2.9,2.8,6.8,3.5,8.8,1.4c2-2,1.2-5.9-1.7-8.8
							c-1.1-1-2.3-1.8-3.4-2.2c-0.1,0-0.2-0.2-0.2-0.3c0-0.1,0.1-0.2,0.2-0.2c6.4-0.6,10.8,3.3,13.5,7.9c2.8,4.7,7.6,8.4,13.2,7.7
							c0.1,0,0.2,0.1,0.3,0.2c0,0.1,0,0.2-0.1,0.3c-2.8,1.7-5.9,2.4-9.9,1.1c5.8,4.9,14,7.7,21.8,5.2c0.1,0,0.2,0,0.3,0.1
							s0.1,0.2,0,0.3c-5.9,6.6-17.7,6.7-25.1,1.4c3,4.3,7.1,7.5,14.3,8.5c0.1,0,0.2,0.1,0.2,0.2c0,0.1-0.1,0.2-0.2,0.3
							c-8.3,3.1-16.6,0-23.4-8.2c3,6.4,7.9,11.5,14.8,14c0.1,0,0.2,0.2,0.2,0.3c0,0.1-0.1,0.2-0.2,0.2c-3.9,0.1-7.5-0.9-12.3-3.6
							c3.5,5.7,2.7,15.6-2.4,22.3c-0.1,0.1-0.2,0.1-0.3,0.1s-0.2-0.2-0.1-0.3c1.2-7.2-1.3-15.3-5.6-19.6c2.2,7.6,0,14.6-5.9,19.6
							c-0.1,0.1-0.2,0.1-0.3,0c-0.1,0-0.1-0.1-0.2-0.2c-1.2-9.4-11.8-19-20.6-19.8c-0.1,0-0.2-0.1-0.2-0.2c0-0.1,0.1-0.2,0.2-0.3
							c4.3-1,8.7-0.5,12.4,1c-2.7-2.9-5.9-5.1-9.6-6.2c-0.1,0-0.2-0.2-0.2-0.3c0-0.1,0.1-0.2,0.2-0.2c4.5-0.3,8.9,1,12.7,3.5
							c-4.4-6.6-11-11.5-19.4-13.5c-0.1,0-0.2-0.1-0.2-0.3c0-0.1,0.1-0.2,0.2-0.2c11.9-1.3,21.7,3.3,28.2,11.9
							c-1.6-4.9-6.4-9.8-12.9-12.6c-5.8-2.5-11.8-2.9-16.4-1.5c-0.1,0-0.2,0-0.3-0.1C108.4-222.6,108.4-222.8,108.5-222.8
							L108.5-222.8z M161.4-147.3c-4.8-10.5-4.5-18.7-0.6-29.1c0-0.1,0.2-0.2,0.3-0.2s0.2,0.1,0.2,0.3c-0.6,12.6,2.8,21.7,10.3,27.8
							c-8.2-9.9-4.4-29.6,8.8-29.6c9.6,0,17.5,8,19.5,17.5c0,0.1,0,0.2-0.2,0.3c-0.1,0-0.2,0-0.3-0.1c-2.8-4.8-7.4-7.9-12.5-7.9
							c-8.1,0-10.5,6.5-10.5,11c0,6.2,4.9,11.3,8.7,11.3c3.4,0,5-2.8,5-4.9c0-3.9-3-7.2-6.4-8.2c-0.1,0-0.2-0.2-0.2-0.3
							s0.1-0.2,0.2-0.2c4.1,0,7.6,1.9,9.6,5.6c0.3-2.9,0.3-4.7-0.6-7.7c0-0.1,0-0.2,0.1-0.3s0.2,0,0.3,0.1c7.4,9.4,3.8,25.6-2,32.4
							c5.5-4,10.4-12.6,10.3-24.4c0-0.1,0.1-0.2,0.2-0.2s0.2,0,0.3,0.2c4.1,10.3,1.9,29.2-9.3,39.9c2.9,0.4,5.9,0.3,9.1-0.7
							c0.1,0,0.2,0,0.3,0.1s0,0.2-0.1,0.3c-4.1,3.5-9.8,4.5-15.3,4.5c4.7-5.5,3.1-16.6-4.4-16.6c-5.3,0-7.8,8.3-3.6,12.8
							c0.1,0.1,0.1,0.2,0,0.3s-0.2,0.1-0.3,0.1c-4.8-1.7-9.9-5.8-9.9-11c0-5.2,4.8-9.4,11.8-9.1c-8.8-2.5-18.1,0.3-22.9,6.3
							c-0.1,0.1-0.2,0.1-0.3,0.1c-0.1-0.1-0.2-0.2-0.1-0.3c2.8-10.7,12-15.2,23.4-13.7c-9.3-3.8-23.2-0.5-29.4,7.3
							c-0.1,0.1-0.2,0.1-0.3,0.1s-0.2-0.2-0.1-0.3C152.2-140.4,155.7-145.3,161.4-147.3z"/>
					</g>
					<g>
						<path class="st1" d="M26.7-166.6c0,0.1,0.1,0.2,0.2,0.2c12.9,0.1,24.8,3.3,34,11.5c-8-5.6-22.9-7.5-31.5-3.6
							c-0.1,0-0.2,0.2-0.1,0.3c0,0.1,0.1,0.2,0.3,0.2c10.7-0.3,19.3,3,26,9c-6.9,0.4-12.6,4.7-12.6,9.8c0,0.1,0.1,0.2,0.2,0.2
							c0.1,0,0.2,0,0.3-0.1c1.1-2.5,4.7-3.8,8.6-2.9c4.2,1,7,4.2,6.3,7.2c-0.5,2-2.4,3.4-5,3.8c-0.1,0-0.2,0.1-0.2,0.3
							c0,0.1,0.1,0.2,0.2,0.2c1.1,0.1,2.2,0.1,3.3,0c6.5-0.6,11.5-4.6,11.9-9.2c4.7,0.5,8.9,3.2,10.4,6.8c0,0.1,0.2,0.2,0.3,0.2
							s0.2-0.1,0.2-0.2c0.4-4.8-1.3-7.8-5-10.9c5.4,2.1,11.4,2.2,17.3-0.5c0.1,0,0.2-0.2,0.1-0.3c0-0.1-0.1-0.2-0.2-0.2
							c-4.9-0.2-8.4-1.8-11.7-5.1c18.3,5.1,33.1-6.2,28-23.1c0-0.1-0.1-0.2-0.3-0.2c-0.1,0-0.2,0.1-0.2,0.2
							c-0.9,9.7-7.7,16.1-17.9,17.1c5.4-2.1,11-7,11.6-15.5c0-0.1-0.1-0.2-0.2-0.3c-0.1,0-0.2,0-0.3,0.1c-2.8,6.2-8.3,9.3-14.2,9.8
							c6.3-2.6,10.4-8.6,11.6-16.4c0-0.1-0.1-0.2-0.2-0.3c-0.1,0-0.2,0-0.3,0.1c-3.9,7.6-12.2,12.8-22.4,8.8
							c-10.7-3.9-15.4-16.2-16.4-24.9c0-0.1-0.1-0.2-0.2-0.2c-0.1,0-0.2,0.1-0.3,0.2c-3.7,15.7,3.6,31.9,16.6,38.8
							c-7.1-2-13.4-6.3-17-13.4c-8.3-1-14-3.9-16.9-9.2c-0.1-0.1-0.2-0.2-0.3-0.1c-0.1,0-0.2,0.1-0.2,0.3c0.2,2.1,0.9,6.3,4.1,8.3
							c-7,0-12.5,0.9-17.8,3C26.7-166.8,26.7-166.7,26.7-166.6z M56.2-220c-0.1,0.1-0.2,0.1-0.3,0c-0.1-0.1-0.1-0.2,0-0.3
							c1.6-2.8,0.1-6.8-3.1-6.8c-5.7,0-8.5,10.8-7.6,20.6c2.2-5.8,4-8.1,7.3-10.8c0.1-0.1,0.2-0.1,0.3,0c0.1,0.1,0.1,0.2,0.1,0.3
							c-4.8,9-5.9,16-5.9,24c1.5-6,3.2-9.3,8.1-14.4c0.1-0.1,0.2-0.1,0.3,0c0.1,0.1,0.1,0.2,0.1,0.3c-5.3,11.6-4.9,24.4-0.9,34.3
							c0,0.1,0,0.2-0.1,0.3c-0.1,0.1-0.2,0.1-0.3,0c-5.2-2.6-8.3-4.2-12.8-10.4c1.4-7.4,0.2-11-3.2-17.2c3.9,9.9,1.8,23.9-8.2,29.6
							c-0.1,0.1-0.2,0-0.3-0.1c-0.1-0.1-0.1-0.2,0-0.3c3.8-4,6.5-10.6,4.2-17.9c1.5,10.4-7.6,19.1-17.8,19.1
							c-9.6,0-16.2-7.5-15.6-14.9c0.5-7.4,5.4-11,9.7-12.5c0.1,0,0.2,0,0.3,0.1c0.1,0.1,0,0.2,0,0.3c-5.6,5.7-6.4,16.5,3.6,19.8
							c-5.9-5.1-3.7-16.8,5.7-17.7c0.1,0,0.2,0.1,0.3,0.2c0,0.1,0,0.2-0.1,0.3c-2,1.3-3.7,3.8-3.7,6.6c0,4.7,3.4,6.5,5.7,6.5
							c3.4,0,6.3-3.3,6.3-8.2c0-5.8-5.3-10.7-12-11.4c-6.7-0.9-12.9,2-15.8,6.3c-0.1,0.1-0.2,0.1-0.3,0.1c-0.2,0-0.2-0.2-0.2-0.3
							c3-11.7,16.8-16.9,26.9-9.5c-6.6-7.5-17-7.6-25.7,0.1c-0.1,0.1-0.2,0.1-0.3,0c-0.1-0.1-0.1-0.2-0.1-0.3
							c2.7-5.4,9.3-11.8,18.6-10.9c8.6,0.9,13.5,9,14.5,15.7c0.6-8.5-1.4-14.5-8.8-20.1c-0.1-0.1-0.1-0.2-0.1-0.3
							c0.1-0.1,0.2-0.2,0.3-0.1c6.8,2,12.2,5.4,15,12.5c0-6.2-2.1-12.4-7.5-16.5c-0.1-0.1-0.1-0.2-0.1-0.3c0.1-0.1,0.2-0.2,0.3-0.1
							c3.5,1,6.2,2.5,8.1,5.2c1.3-11.1,6.5-17.7,12.5-17.7c4.1,0,7.2,3,7.2,7.9C61-226.2,59.5-222.2,56.2-220z M155.4-128.4
							c-3.2,3.9-9.5,5.4-16.4,4c0.5,4.3-0.3,8.8-1.6,11.5c-0.1,0.1-0.2,0.2-0.3,0.1c-0.1,0-0.2-0.1-0.2-0.3
							c0.4-8.8-4.6-15.8-13.4-18.9c6.9,4.8,8.9,14.2,5.6,19.1c-0.1,0.1-0.2,0.1-0.3,0.1s-0.2-0.2-0.2-0.3c0.4-2.1-0.6-4.7-2.7-6.7
							c-2.9-2.8-6.8-3.5-8.8-1.4c-2,2-1.2,5.9,1.7,8.8c1.1,1,2.3,1.8,3.4,2.2c0.1,0,0.2,0.2,0.2,0.3s-0.1,0.2-0.2,0.2
							c-6.4,0.6-10.8-3.3-13.5-7.9c-2.8-4.7-7.6-8.4-13.2-7.7c-0.1,0-0.2-0.1-0.3-0.2c0-0.1,0-0.2,0.1-0.3c2.8-1.7,5.9-2.4,9.9-1.1
							c-5.8-4.9-14-7.7-21.8-5.2c-0.1,0-0.2,0-0.3-0.1c-0.1-0.1-0.1-0.2,0-0.3c5.9-6.6,17.7-6.7,25.1-1.4c-3-4.3-7.1-7.5-14.3-8.5
							c-0.1,0-0.2-0.1-0.2-0.2c0-0.1,0.1-0.2,0.2-0.3c8.3-3.1,16.6,0,23.4,8.2c-3-6.4-7.9-11.5-14.8-14c-0.1,0-0.2-0.2-0.2-0.3
							s0.1-0.2,0.2-0.2c3.9-0.1,7.5,0.9,12.3,3.6c-3.5-5.7-2.7-15.6,2.4-22.3c0.1-0.1,0.2-0.1,0.3-0.1s0.2,0.2,0.1,0.3
							c-1.2,7.2,1.3,15.3,5.6,19.6c-2.2-7.6,0-14.6,5.9-19.6c0.1-0.1,0.2-0.1,0.3,0c0.1,0,0.1,0.1,0.2,0.2
							c1.2,9.4,11.8,19,20.6,19.8c0.1,0,0.2,0.1,0.2,0.2c0,0.1-0.1,0.2-0.2,0.3c-4.3,1-8.7,0.5-12.4-1c2.7,2.9,5.9,5.1,9.6,6.2
							c0.1,0,0.2,0.2,0.2,0.3s-0.1,0.2-0.2,0.2c-4.5,0.3-8.9-1-12.7-3.5c4.4,6.6,11,11.5,19.4,13.5c0.1,0,0.2,0.1,0.2,0.3
							c0,0.1-0.1,0.2-0.2,0.2c-11.9,1.3-21.7-3.3-28.2-11.9c1.6,4.9,6.4,9.8,12.9,12.6c5.8,2.5,11.8,2.9,16.4,1.5
							c0.1,0,0.2,0,0.3,0.1C155.5-128.6,155.5-128.5,155.4-128.4z M102.5-204c4.8,10.5,4.5,18.7,0.6,29.1c0,0.1-0.2,0.2-0.3,0.2
							s-0.2-0.1-0.2-0.3c0.6-12.6-2.8-21.7-10.3-27.8c8.2,9.9,4.4,29.6-8.8,29.6c-9.6,0-17.5-8-19.5-17.5c0-0.1,0-0.2,0.2-0.3
							c0.1,0,0.2,0,0.3,0.1c2.8,4.8,7.4,7.9,12.5,7.9c8.1,0,10.5-6.5,10.5-11c0-6.2-4.9-11.3-8.7-11.3c-3.4,0-5,2.8-5,4.9
							c0,3.9,3,7.2,6.4,8.2c0.1,0,0.2,0.2,0.2,0.3c0,0.1-0.1,0.2-0.2,0.2c-4.1,0-7.6-1.9-9.6-5.6c-0.3,2.9-0.3,4.7,0.6,7.7
							c0,0.1,0,0.2-0.1,0.3c-0.1,0.1-0.2,0-0.3-0.1c-7.4-9.4-3.8-25.6,2-32.4c-5.5,4-10.4,12.6-10.3,24.4c0,0.1-0.1,0.2-0.2,0.2
							c-0.1,0-0.2,0-0.3-0.2c-4.1-10.3-1.9-29.2,9.3-39.9c-2.9-0.4-5.9-0.3-9.1,0.7c-0.1,0-0.2,0-0.3-0.1s0-0.2,0.1-0.3
							c3.8-3.4,9.5-4.5,15-4.5c-4.7,5.5-3.1,16.6,4.4,16.6c5.3,0,7.8-8.3,3.6-12.8c-0.1-0.1-0.1-0.2,0-0.3c0.1-0.1,0.2-0.1,0.3-0.1
							c4.8,1.7,9.9,5.8,9.9,11s-4.8,9.4-11.8,9.1c8.8,2.5,18.1-0.3,22.9-6.3c0.1-0.1,0.2-0.1,0.3-0.1c0.1,0.1,0.2,0.2,0.1,0.3
							c-2.8,10.7-12,15.2-23.4,13.7c9.3,3.8,23.2,0.5,29.4-7.3c0.1-0.1,0.2-0.1,0.3-0.1c0.1,0.1,0.2,0.2,0.1,0.3
							C111.8-210.9,108.3-205.9,102.5-204L102.5-204z"/>
						<path class="st2" d="M128.9-184.7c0-0.1-0.1-0.2-0.2-0.2c-12.9-0.1-24.8-3.3-34-11.5c8,5.6,22.9,7.5,31.5,3.6
							c0.1-0.1,0.2-0.2,0.1-0.3c0-0.1-0.1-0.2-0.3-0.2c-10.7,0.3-19.3-3-26-9c6.9-0.4,12.6-4.7,12.6-9.8c0-0.1-0.1-0.2-0.2-0.2
							s-0.2,0-0.3,0.1c-1.1,2.5-4.7,3.8-8.6,2.9c-4.2-1-7-4.2-6.3-7.2c0.5-2,2.4-3.4,5-3.8c0.1,0,0.2-0.1,0.2-0.3
							c0-0.1-0.1-0.2-0.2-0.2c-1.1-0.1-2.2-0.1-3.3,0c-6.5,0.6-11.5,4.6-11.9,9.2c-4.7-0.5-8.9-3.2-10.4-6.8c0-0.1-0.2-0.2-0.3-0.2
							s-0.2,0.1-0.2,0.2c-0.4,4.8,1.3,7.8,5,10.9c-5.4-2.1-11.4-2.2-17.3,0.5c-0.1,0.1-0.2,0.2-0.1,0.3c0,0.1,0.1,0.2,0.2,0.2
							c4.9,0.2,8.4,1.8,11.7,5.1c-18.3-5.1-33.1,6.2-28,23.1c0,0.1,0.1,0.2,0.3,0.2c0.1,0,0.2-0.1,0.2-0.2c1-9.8,7.8-16.2,17.9-17.1
							c-5.4,2.1-11,7-11.6,15.5c0,0.1,0.1,0.2,0.2,0.3c0.1,0,0.2,0,0.3-0.1c2.8-6.2,8.3-9.3,14.2-9.8c-6.3,2.6-10.4,8.6-11.6,16.4
							c0,0.1,0.1,0.2,0.2,0.3c0.1,0,0.2,0,0.3-0.1c3.9-7.6,12.2-12.8,22.4-8.8c10.6,4.1,15.3,16.4,16.3,25c0,0.1,0.1,0.2,0.2,0.2
							s0.2-0.1,0.3-0.2c3.7-15.7-3.6-31.9-16.6-38.8c7.1,2,13.4,6.3,17,13.4c8.3,1,14,3.9,16.9,9.2c0.1,0.1,0.2,0.2,0.3,0.1
							c0.1,0,0.2-0.1,0.2-0.3c-0.2-2.1-0.9-6.3-4.1-8.3c7,0,12.5-0.9,17.8-3C128.8-184.5,128.9-184.6,128.9-184.7z M99.4-131.2
							c0.1-0.1,0.2-0.1,0.3,0c0.1,0.1,0.1,0.2,0,0.3c-1.6,2.8-0.1,6.8,3.1,6.8c5.7,0,8.5-10.8,7.6-20.6c-2.2,5.8-4,8.1-7.3,10.8
							c-0.1,0.1-0.2,0.1-0.3,0c-0.1-0.1-0.1-0.2-0.1-0.3c4.9-9.1,5.9-16.1,5.9-24.1c-1.5,6-3.2,9.3-8.1,14.4c-0.1,0.1-0.2,0.1-0.3,0
							c-0.1-0.1-0.1-0.2-0.1-0.3c5.3-11.6,4.9-24.4,0.9-34.3c0-0.1,0-0.2,0.1-0.3c0.1-0.1,0.2-0.1,0.3,0c5.2,2.6,8.3,4.2,12.8,10.4
							c-1.4,7.4-0.2,11,3.2,17.2c-3.9-9.9-1.8-23.9,8.2-29.6c0.1-0.1,0.2,0,0.3,0.1c0.1,0.1,0.1,0.2,0,0.3c-3.8,4-6.5,10.6-4.2,17.9
							c-1.5-10.4,7.6-19.1,17.8-19.1c9.6,0,16.2,7.5,15.6,14.9c-0.5,7.4-5.4,11-9.7,12.5c-0.1,0-0.2,0-0.3-0.1
							c-0.1-0.1-0.1-0.2,0-0.3c5.6-5.7,6.4-16.5-3.6-19.8c5.9,5.1,3.7,16.8-5.7,17.7c-0.1,0-0.2-0.1-0.3-0.2c0-0.1,0-0.2,0.1-0.3
							c2-1.3,3.7-3.8,3.7-6.6c0-4.7-3.4-6.5-5.7-6.5c-3.4,0-6.3,3.3-6.3,8.2c0,5.8,5.3,10.7,12,11.4c6.6,0.7,12.8-2.2,15.8-6.5
							c0.1-0.1,0.2-0.1,0.3-0.1c0.1,0.1,0.2,0.2,0.1,0.3c-3,11.7-16.8,16.9-26.9,9.5c6.6,7.5,17,7.6,25.7-0.1c0.1-0.1,0.2-0.1,0.3,0
							c0.1,0.1,0.1,0.2,0.1,0.3c-2.7,5.4-9.3,11.8-18.6,10.9c-8.6-0.9-13.5-9-14.5-15.7c-0.6,8.5,1.4,14.5,8.8,20.1
							c0.1,0.1,0.1,0.2,0.1,0.3c-0.1,0.1-0.2,0.2-0.3,0.1c-6.8-2-12.2-5.4-15-12.5c0,6.2,2.1,12.4,7.5,16.5c0.1,0.1,0.1,0.2,0.1,0.3
							c-0.1,0.1-0.2,0.2-0.3,0.1c-3.5-1-6.2-2.5-8.1-5.2c-1.3,11.1-6.5,17.7-12.5,17.7c-4.1,0-7.2-3-7.2-7.9
							C94.6-125,96.1-129,99.4-131.2L99.4-131.2z M0.2-222.8c3.2-3.9,9.5-5.4,16.4-4c-0.5-4.3,0.3-8.8,1.6-11.5
							c0.1-0.1,0.2-0.2,0.3-0.2s0.2,0.1,0.2,0.3c-0.4,8.8,4.6,15.8,13.4,18.9c-6.9-4.7-8.9-14.2-5.6-19c0.1-0.1,0.2-0.1,0.3-0.1
							s0.2,0.2,0.2,0.3c-0.4,2.1,0.6,4.7,2.7,6.7c2.9,2.8,6.8,3.5,8.8,1.4c2-2,1.2-5.9-1.7-8.8c-1.1-1-2.3-1.8-3.4-2.2
							c-0.1,0-0.2-0.2-0.2-0.3c0-0.1,0.1-0.2,0.2-0.2c6.4-0.6,10.8,3.3,13.5,7.9c2.8,4.7,7.6,8.4,13.2,7.7c0.1,0,0.2,0.1,0.3,0.2
							c0,0.1,0,0.2-0.1,0.3c-2.8,1.7-5.9,2.4-9.9,1.1c5.8,4.9,14,7.7,21.8,5.2c0.1,0,0.2,0,0.3,0.1c0.1,0.1,0.1,0.2,0,0.3
							c-5.9,6.6-17.7,6.7-25.1,1.4c3,4.3,7.1,7.5,14.3,8.5c0.1,0,0.2,0.1,0.2,0.2c0,0.1-0.1,0.2-0.2,0.3c-8.3,3.1-16.6,0-23.4-8.2
							c3,6.4,7.9,11.5,14.8,14c0.1,0,0.2,0.2,0.2,0.3c0,0.1-0.1,0.2-0.2,0.2c-3.9,0.1-7.5-0.9-12.3-3.6c3.5,5.7,2.7,15.6-2.4,22.3
							c-0.1,0.1-0.2,0.1-0.3,0.1s-0.2-0.2-0.1-0.3c1.2-7.2-1.3-15.3-5.6-19.6c2.2,7.6,0,14.6-5.9,19.6c-0.1,0.1-0.2,0.1-0.3,0
							c-0.1,0-0.1-0.1-0.2-0.2c-1.2-9.4-11.8-19-20.6-19.8c-0.1,0-0.2-0.1-0.2-0.2s0.1-0.2,0.2-0.3c4.3-1,8.7-0.5,12.4,1
							c-2.7-2.9-5.9-5.1-9.6-6.2c-0.1-0.1-0.2-0.2-0.2-0.3s0.1-0.2,0.2-0.2c4.5-0.3,8.9,1,12.7,3.5c-4.4-6.6-11-11.5-19.4-13.5
							c-0.1,0-0.2-0.1-0.2-0.3c0-0.1,0.1-0.2,0.2-0.2c11.9-1.3,21.7,3.3,28.2,11.9c-1.6-4.9-6.4-9.8-12.9-12.6
							c-5.8-2.6-11.8-3-16.4-1.5c-0.1,0-0.2,0-0.3-0.1C0.1-222.6,0.1-222.8,0.2-222.8L0.2-222.8z M53.1-147.3
							c-4.8-10.5-4.5-18.7-0.6-29.1c0-0.1,0.2-0.2,0.3-0.2s0.2,0.1,0.2,0.3c-0.6,12.6,2.8,21.7,10.3,27.8
							c-8.2-9.9-4.4-29.6,8.8-29.6c9.6,0,17.5,8,19.5,17.5c0,0.1,0,0.2-0.2,0.3c-0.1,0-0.2,0-0.3-0.1c-2.8-4.8-7.4-7.9-12.5-7.9
							c-8.1,0-10.5,6.5-10.5,11c0,6.2,4.9,11.3,8.7,11.3c3.4,0,5-2.8,5-4.9c0-3.9-3-7.2-6.4-8.2c-0.1,0-0.2-0.2-0.2-0.3
							s0.1-0.2,0.2-0.2c4.1,0,7.6,1.9,9.6,5.6c0.3-2.9,0.3-4.7-0.6-7.7c0-0.1,0-0.2,0.1-0.3s0.2,0,0.3,0.1c7.4,9.4,3.8,25.6-2,32.4
							c5.5-4,10.4-12.6,10.3-24.4c0-0.1,0.1-0.2,0.2-0.2s0.2,0,0.3,0.2c4.1,10.3,1.9,29.2-9.3,39.9c2.9,0.4,5.9,0.3,9.1-0.7
							c0.1,0,0.2,0,0.3,0.1s0,0.2-0.1,0.3c-4.1,3.5-9.8,4.5-15.3,4.5c4.7-5.5,3.1-16.6-4.4-16.6c-5.3,0-7.8,8.3-3.6,12.8
							c0.1,0.1,0.1,0.2,0,0.3s-0.2,0.1-0.3,0.1c-4.8-1.7-9.9-5.8-9.9-11c0-5.2,4.8-9.4,11.8-9.1c-8.8-2.5-18.1,0.3-22.9,6.3
							c-0.1,0.1-0.2,0.1-0.3,0.1c-0.1-0.1-0.2-0.2-0.1-0.3c2.8-10.7,12-15.2,23.4-13.7c-9.3-3.8-23.2-0.5-29.4,7.3
							c-0.1,0.1-0.2,0.1-0.3,0.1s-0.2-0.2-0.1-0.3C43.8-140.4,47.3-145.3,53.1-147.3z"/>
					</g>
					<g>
						<path class="st1" d="M135-56.9c0,0.1,0.1,0.2,0.2,0.2c12.9,0.1,24.8,3.3,34,11.5c-8-5.6-22.9-7.5-31.5-3.6
							c-0.1,0-0.2,0.2-0.1,0.3c0,0.1,0.1,0.2,0.3,0.2c10.7-0.3,19.3,3,26,9c-6.9,0.4-12.6,4.7-12.6,9.8c0,0.1,0.1,0.2,0.2,0.2
							c0.1,0,0.2,0,0.3-0.1c1.1-2.5,4.7-3.8,8.6-2.9c4.2,1,7,4.2,6.3,7.2c-0.5,2-2.4,3.4-5,3.8c-0.1,0-0.2,0.1-0.2,0.3
							c0,0.1,0.1,0.2,0.2,0.2c1.1,0.1,2.2,0.1,3.3,0c6.5-0.6,11.5-4.6,11.9-9.2c4.7,0.5,8.9,3.2,10.4,6.8c0,0.1,0.2,0.2,0.3,0.2
							s0.2-0.1,0.2-0.2c0.4-4.8-1.3-7.8-5-10.9c5.4,2.1,11.4,2.2,17.3-0.5c0.1,0,0.2-0.2,0.1-0.3c0-0.1-0.1-0.2-0.2-0.2
							c-4.9-0.2-8.4-1.8-11.7-5.1c18.3,5.1,33.1-6.2,28-23.1c0-0.1-0.1-0.2-0.3-0.2c-0.1,0-0.2,0.1-0.2,0.2
							c-0.9,9.7-7.7,16.1-17.9,17.1c5.4-2.1,11-7,11.6-15.5c0-0.1-0.1-0.2-0.2-0.3c-0.1,0-0.2,0-0.3,0.1c-2.8,6.2-8.3,9.3-14.2,9.8
							c6.3-2.6,10.4-8.6,11.6-16.4c0-0.1-0.1-0.2-0.2-0.3c-0.1,0-0.2,0-0.3,0.1c-3.9,7.6-12.2,12.8-22.4,8.8
							c-10.6-4.1-15.3-16.4-16.3-25c0-0.1-0.1-0.2-0.2-0.2c-0.1,0-0.2,0.1-0.3,0.2c-3.7,15.7,3.6,31.9,16.6,38.8
							c-7.1-2-13.4-6.3-17-13.4c-8.3-1-14-3.9-16.9-9.2c-0.1-0.1-0.2-0.2-0.3-0.1c-0.1,0-0.2,0.1-0.2,0.3c0.2,2.1,0.9,6.3,4.1,8.3
							c-7,0-12.5,0.9-17.8,3C135.1-57.2,135-57,135-56.9L135-56.9z M164.5-110.4c-0.1,0.1-0.2,0.1-0.3,0s-0.1-0.2,0-0.3
							c1.6-2.8,0.1-6.8-3.1-6.8c-5.7,0-8.5,10.8-7.6,20.6c2.2-5.8,4-8.1,7.3-10.8c0.1-0.1,0.2-0.1,0.3,0s0.1,0.2,0.1,0.3
							c-4.9,9.1-5.9,16.1-5.9,24.1c1.5-6,3.2-9.3,8.1-14.4c0.1-0.1,0.2-0.1,0.3,0s0.1,0.2,0.1,0.3c-5.3,11.6-4.9,24.4-0.9,34.3
							c0,0.1,0,0.2-0.1,0.3s-0.2,0.1-0.3,0c-5.2-2.6-8.3-4.2-12.8-10.4c1.4-7.4,0.2-11-3.2-17.2c3.9,9.9,1.8,23.9-8.2,29.6
							c-0.1,0.1-0.2,0-0.3-0.1s-0.1-0.2,0-0.3c3.8-4,6.5-10.6,4.2-17.9c1.5,10.4-7.6,19.1-17.8,19.1c-9.6,0-16.2-7.5-15.6-14.9
							c0.5-7.4,5.4-11,9.7-12.5c0.1,0,0.2,0,0.3,0.1c0.1,0.1,0,0.2,0,0.3c-5.6,5.7-6.4,16.5,3.6,19.8c-5.9-5.1-3.7-16.8,5.7-17.7
							c0.1,0,0.2,0.1,0.3,0.2c0,0.1,0,0.2-0.1,0.3c-2,1.3-3.7,3.8-3.7,6.6c0,4.7,3.4,6.5,5.7,6.5c3.4,0,6.3-3.3,6.3-8.2
							c0-5.8-5.3-10.7-12-11.4c-6.6-0.7-12.8,2.2-15.8,6.5c-0.1,0.1-0.2,0.1-0.3,0.1c-0.1-0.1-0.2-0.2-0.1-0.3
							c3-11.7,16.8-16.9,26.9-9.5c-6.6-7.5-17-7.6-25.7,0.1c-0.1,0.1-0.2,0.1-0.3,0c-0.1-0.1-0.1-0.2-0.1-0.3
							c2.7-5.4,9.3-11.8,18.6-10.9c8.6,0.9,13.5,9,14.5,15.7c0.6-8.5-1.4-14.5-8.8-20.1c-0.1-0.1-0.1-0.2-0.1-0.3
							c0.1-0.1,0.2-0.2,0.3-0.1c6.8,2,12.2,5.4,15,12.5c0-6.2-2.1-12.4-7.5-16.5c-0.1-0.1-0.1-0.2-0.1-0.3s0.2-0.2,0.3-0.1
							c3.5,1,6.2,2.5,8.1,5.2c1.3-11.1,6.5-17.7,12.5-17.7c4.1,0,7.2,3,7.2,7.9C169.3-116.6,167.8-112.6,164.5-110.4L164.5-110.4z
							 M263.7-18.8c-3.2,3.9-9.5,5.4-16.4,4c0.5,4.3-0.3,8.8-1.6,11.5c-0.1,0.1-0.2,0.2-0.3,0.1c-0.1,0-0.2-0.1-0.2-0.3
							c0.4-8.8-4.6-15.8-13.4-18.9c6.9,4.8,8.9,14.2,5.6,19.1c-0.1,0.1-0.2,0.1-0.3,0.1s-0.2-0.2-0.2-0.3c0.4-2.1-0.6-4.7-2.7-6.7
							c-2.9-2.8-6.8-3.5-8.8-1.4c-2,2-1.2,5.9,1.7,8.8c1.1,1,2.3,1.8,3.4,2.2c0.1,0,0.2,0.2,0.2,0.3s-0.1,0.2-0.2,0.2
							C224.1,0.5,219.7-3.4,217-8c-2.8-4.7-7.6-8.4-13.2-7.7c-0.1,0-0.2-0.1-0.3-0.2c0-0.1,0-0.2,0.1-0.3c2.8-1.7,5.9-2.4,9.9-1.1
							c-5.8-4.9-14-7.7-21.8-5.2c-0.1,0-0.2,0-0.3-0.1s-0.1-0.2,0-0.3c5.9-6.6,17.7-6.7,25.1-1.4c-3-4.3-7.1-7.5-14.3-8.5
							c-0.1,0-0.2-0.1-0.2-0.2c0-0.1,0.1-0.2,0.2-0.3c8.3-3.1,16.6,0,23.4,8.2c-3-6.4-7.9-11.5-14.8-14c-0.1,0-0.2-0.2-0.2-0.3
							s0.1-0.2,0.2-0.2c3.9-0.1,7.5,0.9,12.3,3.6c-3.5-5.7-2.7-15.6,2.4-22.3c0.1-0.1,0.2-0.1,0.3-0.1s0.2,0.2,0.1,0.3
							c-1.2,7.2,1.3,15.3,5.6,19.6c-2.2-7.6,0-14.6,5.9-19.6c0.1-0.1,0.2-0.1,0.3,0c0.1,0,0.1,0.1,0.2,0.2
							c1.2,9.4,11.8,19,20.6,19.8c0.1,0,0.2,0.1,0.2,0.2c0,0.1-0.1,0.2-0.2,0.3c-4.3,1-8.7,0.5-12.4-1c2.7,2.9,5.9,5.1,9.6,6.2
							c0.1,0,0.2,0.2,0.2,0.3c0,0.1-0.1,0.2-0.2,0.2c-4.5,0.3-8.9-1-12.7-3.5c4.4,6.6,11,11.5,19.4,13.5c0.1,0,0.2,0.1,0.2,0.3
							c0,0.1-0.1,0.2-0.2,0.2c-11.9,1.3-21.7-3.3-28.2-11.9c1.6,4.9,6.4,9.8,12.9,12.6c5.8,2.5,11.9,2.9,16.4,1.5
							c0.1,0,0.2,0,0.3,0.1C263.8-19,263.8-18.9,263.7-18.8z M210.8-94.3c4.8,10.5,4.5,18.7,0.6,29.1c0,0.1-0.2,0.2-0.3,0.2
							s-0.2-0.1-0.2-0.3c0.6-12.6-2.8-21.7-10.3-27.8c8.2,9.9,4.4,29.6-8.8,29.6c-9.6,0-17.5-8-19.5-17.5c0-0.1,0-0.2,0.2-0.3
							c0.1,0,0.2,0,0.3,0.1c2.8,4.8,7.4,7.9,12.5,7.9c8.1,0,10.5-6.5,10.5-11c0-6.2-4.9-11.3-8.7-11.3c-3.4,0-5,2.8-5,4.9
							c0,3.9,3,7.2,6.4,8.2c0.1,0,0.2,0.2,0.2,0.3s-0.1,0.2-0.2,0.2c-4.1,0-7.6-1.9-9.6-5.6c-0.3,2.9-0.3,4.7,0.6,7.7
							c0,0.1,0,0.2-0.1,0.3s-0.2,0-0.3-0.1c-7.4-9.4-3.8-25.6,2-32.4c-5.5,4-10.4,12.6-10.3,24.4c0,0.1-0.1,0.2-0.2,0.2
							c-0.1,0-0.2,0-0.3-0.2c-4.1-10.3-1.9-29.2,9.3-39.9c-2.9-0.4-5.9-0.3-9.1,0.7c-0.1,0-0.2,0-0.3-0.1s0-0.2,0.1-0.3
							c4.1-3.5,9.8-4.5,15.3-4.5c-4.7,5.5-3.1,16.6,4.4,16.6c5.3,0,7.8-8.3,3.6-12.8c-0.1-0.1-0.1-0.2,0-0.3
							c0.1-0.1,0.2-0.1,0.3-0.1c4.8,1.7,9.9,5.8,9.9,11s-4.8,9.4-11.8,9.1c8.8,2.5,18.1-0.3,22.9-6.3c0.1-0.1,0.2-0.1,0.3-0.1
							c0.1,0.1,0.2,0.2,0.1,0.3c-2.8,10.7-12,15.2-23.4,13.7c9.3,3.8,23.2,0.5,29.4-7.3c0.1-0.1,0.2-0.1,0.3-0.1
							c0.1,0.1,0.2,0.2,0.1,0.3C220.1-101.2,216.6-96.3,210.8-94.3z"/>
						<path class="st2" d="M237.2-75c0-0.1-0.1-0.2-0.2-0.2c-12.9-0.1-24.8-3.3-34-11.5c8,5.6,22.9,7.5,31.5,3.6
							c0.1-0.1,0.2-0.2,0.1-0.3c0-0.1-0.1-0.2-0.3-0.2c-10.7,0.3-19.3-3-26-9c6.9-0.4,12.6-4.7,12.6-9.8c0-0.1-0.1-0.2-0.2-0.2
							s-0.2,0-0.3,0.1c-1.1,2.5-4.7,3.8-8.6,2.9c-4.2-1-7-4.2-6.3-7.2c0.5-2,2.4-3.4,5-3.8c0.1,0,0.2-0.1,0.2-0.3
							c0-0.1-0.1-0.2-0.2-0.2c-1.1-0.1-2.2-0.1-3.3,0c-6.5,0.6-11.5,4.6-11.9,9.2c-4.7-0.5-8.9-3.2-10.4-6.8c0-0.1-0.2-0.2-0.3-0.2
							s-0.2,0.1-0.2,0.2c-0.4,4.8,1.3,7.8,5,10.9c-5.4-2.1-11.4-2.2-17.3,0.5c-0.1,0.1-0.2,0.2-0.1,0.3c0,0.1,0.1,0.2,0.2,0.2
							c4.9,0.2,8.4,1.8,11.7,5.1c-18.3-5.1-33.1,6.2-28,23.1c0,0.1,0.1,0.2,0.3,0.2s0.2-0.1,0.2-0.2c0.9-9.7,7.7-16.1,17.9-17.1
							c-5.4,2.1-11,7-11.6,15.5c0,0.1,0.1,0.2,0.2,0.3c0.1,0,0.2,0,0.3-0.1c2.8-6.2,8.3-9.3,14.2-9.8c-6.3,2.6-10.4,8.6-11.6,16.4
							c0,0.1,0.1,0.2,0.2,0.3c0.1,0,0.2,0,0.3-0.1c3.9-7.6,12.2-12.8,22.4-8.8c10.6,4.1,15.3,16.4,16.3,25c0,0.1,0.1,0.2,0.2,0.2
							s0.2-0.1,0.3-0.2c3.7-15.7-3.6-31.9-16.6-38.8c7.1,2,13.4,6.3,17,13.4c8.3,1,14,3.9,16.9,9.2c0.1,0.1,0.2,0.2,0.3,0.1
							c0.1,0,0.2-0.1,0.2-0.3c-0.2-2.1-0.9-6.3-4.1-8.3c7,0,12.5-0.9,17.8-3C237.2-74.8,237.2-74.9,237.2-75z M207.7-21.6
							c0.1-0.1,0.2-0.1,0.3,0s0.1,0.2,0,0.3c-1.6,2.8-0.1,6.8,3.1,6.8c5.7,0,8.5-10.8,7.6-20.6c-2.2,5.8-4,8.1-7.3,10.8
							c-0.1,0.1-0.2,0.1-0.3,0s-0.1-0.2-0.1-0.3c4.9-9.1,5.9-16.1,5.9-24.1c-1.5,6-3.2,9.3-8.1,14.4c-0.1,0.1-0.2,0.1-0.3,0
							s-0.1-0.2-0.1-0.3c5.3-11.6,4.9-24.4,0.9-34.3c0-0.1,0-0.2,0.1-0.3s0.2-0.1,0.3,0c5.2,2.6,8.3,4.2,12.8,10.4
							c-1.4,7.4-0.2,11,3.2,17.2c-3.9-9.9-1.8-23.9,8.2-29.6c0.1-0.1,0.2,0,0.3,0.1s0.1,0.2,0,0.3c-3.8,4-6.5,10.6-4.2,17.9
							c-1.5-10.4,7.6-19.1,17.8-19.1c9.6,0,16.2,7.5,15.6,14.9c-0.5,7.4-5.4,11-9.7,12.5c-0.1,0-0.2,0-0.3-0.1s-0.1-0.2,0-0.3
							c5.6-5.7,6.4-16.5-3.6-19.8c5.9,5.1,3.7,16.8-5.7,17.7c-0.1,0-0.2-0.1-0.3-0.2c0-0.1,0-0.2,0.1-0.3c2-1.3,3.7-3.8,3.7-6.6
							c0-4.7-3.4-6.5-5.7-6.5c-3.4,0-6.3,3.3-6.3,8.2c0,5.8,5.3,10.7,12,11.4c6.6,0.7,12.8-2.2,15.8-6.5c0.1-0.1,0.2-0.1,0.3-0.1
							c0.1,0.1,0.2,0.2,0.1,0.3c-3,11.7-16.8,16.9-26.9,9.5c6.6,7.5,17,7.6,25.7-0.1c0.1-0.1,0.2-0.1,0.3,0c0.1,0.1,0.1,0.2,0.1,0.3
							c-2.7,5.4-9.3,11.8-18.6,10.9c-8.6-0.9-13.5-9-14.5-15.7c-0.6,8.5,1.4,14.5,8.8,20.1c0.1,0.1,0.1,0.2,0.1,0.3
							s-0.2,0.2-0.3,0.1c-6.8-2-12.2-5.4-15-12.5c0,6.2,2.1,12.4,7.5,16.5c0.1,0.1,0.1,0.2,0.1,0.3c-0.1,0.1-0.2,0.2-0.3,0.1
							c-3.5-1-6.2-2.5-8.1-5.2c-1.3,11.1-6.5,17.7-12.5,17.7c-4.1,0-7.2-3-7.2-7.9C202.9-15.4,204.4-19.4,207.7-21.6L207.7-21.6z
							 M108.5-113.2c3.2-3.9,9.5-5.4,16.4-4c-0.5-4.3,0.3-8.8,1.6-11.5c0.1-0.1,0.2-0.2,0.3-0.1c0.1,0,0.2,0.1,0.2,0.3
							c-0.4,8.8,4.6,15.8,13.4,18.9c-6.9-4.8-8.9-14.2-5.6-19.1c0.1-0.1,0.2-0.1,0.3-0.1s0.2,0.2,0.2,0.3c-0.4,2.1,0.6,4.7,2.7,6.7
							c2.9,2.8,6.8,3.5,8.8,1.4c2-2,1.2-5.9-1.7-8.8c-1.1-1-2.3-1.8-3.4-2.2c-0.1,0-0.2-0.2-0.2-0.3c0-0.1,0.1-0.2,0.2-0.2
							c6.4-0.6,10.8,3.3,13.5,7.9c2.8,4.7,7.6,8.4,13.2,7.7c0.1,0,0.2,0.1,0.3,0.2c0,0.1,0,0.2-0.1,0.3c-2.8,1.7-5.9,2.4-9.9,1.1
							c5.8,4.9,14,7.7,21.8,5.2c0.1,0,0.2,0,0.3,0.1s0.1,0.2,0,0.3c-5.9,6.6-17.7,6.7-25.1,1.4c3,4.3,7.1,7.5,14.3,8.5
							c0.1,0,0.2,0.1,0.2,0.2c0,0.1-0.1,0.2-0.2,0.3c-8.3,3.1-16.6,0-23.4-8.2c3,6.4,7.9,11.5,14.8,14c0.1,0,0.2,0.2,0.2,0.3
							s-0.1,0.2-0.2,0.2c-3.9,0.1-7.5-0.9-12.3-3.6c3.5,5.7,2.7,15.6-2.4,22.3c-0.1,0.1-0.2,0.1-0.3,0.1s-0.2-0.2-0.1-0.3
							c1.2-7.2-1.3-15.3-5.6-19.6c2.2,7.6,0,14.6-5.9,19.6c-0.1,0.1-0.2,0.1-0.3,0c-0.1,0-0.1-0.1-0.2-0.2
							c-1.2-9.4-11.8-19-20.6-19.8c-0.1,0-0.2-0.1-0.2-0.2c0-0.1,0.1-0.2,0.2-0.3c4.3-1,8.7-0.5,12.4,1c-2.7-2.9-5.9-5.1-9.6-6.2
							c-0.1,0-0.2-0.2-0.2-0.3s0.1-0.2,0.2-0.2c4.5-0.3,8.9,1,12.7,3.5c-4.4-6.6-11-11.5-19.4-13.5c-0.1,0-0.2-0.1-0.2-0.3
							c0-0.1,0.1-0.2,0.2-0.2c11.9-1.3,21.7,3.3,28.2,11.9c-1.6-4.9-6.4-9.8-12.9-12.6c-5.8-2.5-11.8-2.9-16.4-1.5
							c-0.1,0-0.2,0-0.3-0.1C108.4-113,108.4-113.1,108.5-113.2z M161.4-37.6c-4.8-10.5-4.5-18.7-0.6-29.1c0-0.1,0.2-0.2,0.3-0.2
							s0.2,0.1,0.2,0.3c-0.6,12.6,2.8,21.7,10.3,27.8c-8.2-9.9-4.4-29.6,8.8-29.6c9.6,0,17.5,8,19.5,17.5c0,0.1,0,0.2-0.2,0.3
							c-0.1,0-0.2,0-0.3-0.1c-2.8-4.8-7.4-7.9-12.5-7.9c-8.1,0-10.5,6.5-10.5,11c0,6.2,4.9,11.3,8.7,11.3c3.4,0,5-2.8,5-4.9
							c0-3.9-3-7.2-6.4-8.2c-0.1,0-0.2-0.2-0.2-0.3s0.1-0.2,0.2-0.2c4.1,0,7.6,1.9,9.6,5.6c0.3-2.9,0.3-4.7-0.6-7.7
							c0-0.1,0-0.2,0.1-0.3s0.2,0,0.3,0.1c7.4,9.4,3.8,25.6-2,32.4c5.5-4,10.4-12.6,10.3-24.4c0-0.1,0.1-0.2,0.2-0.2s0.2,0,0.3,0.2
							c4.1,10.3,1.9,29.2-9.3,39.9c2.9,0.4,5.9,0.3,9.1-0.7c0.1,0,0.2,0,0.3,0.1s0,0.2-0.1,0.3c-4.1,3.5-9.8,4.5-15.3,4.5
							c4.7-5.5,3.1-16.6-4.4-16.6c-5.3,0-7.8,8.3-3.6,12.8c0.1,0.1,0.1,0.2,0,0.3s-0.2,0.1-0.3,0.1c-4.8-1.7-9.9-5.8-9.9-11
							s4.8-9.4,11.8-9.1c-8.8-2.5-18.1,0.3-22.9,6.3c-0.1,0.1-0.2,0.1-0.3,0.1c-0.1-0.1-0.2-0.2-0.1-0.3c2.8-10.7,12-15.2,23.4-13.7
							c-9.3-3.8-23.2-0.5-29.4,7.3c-0.1,0.1-0.2,0.1-0.3,0.1s-0.2-0.2-0.1-0.3C152.2-30.7,155.7-35.7,161.4-37.6L161.4-37.6z"/>
					</g>
					<g>
						<path class="st1" d="M26.7-56.9c0,0.1,0.1,0.2,0.2,0.2c12.9,0.1,24.8,3.3,34,11.5c-8-5.6-22.9-7.5-31.5-3.6
							c-0.1,0-0.2,0.2-0.1,0.3c0,0.1,0.1,0.2,0.3,0.2c10.7-0.3,19.3,3,26,9C48.7-38.9,43-34.6,43-29.5c0,0.1,0.1,0.2,0.2,0.2
							c0.1,0,0.2,0,0.3-0.1c1.1-2.5,4.7-3.8,8.6-2.9c4.2,1,7,4.2,6.3,7.2c-0.5,2-2.4,3.4-5,3.8c-0.1,0-0.2,0.1-0.2,0.3
							c0,0.1,0.1,0.2,0.2,0.2c1.1,0.1,2.2,0.1,3.3,0c6.5-0.6,11.5-4.6,11.9-9.2c4.7,0.5,8.9,3.2,10.4,6.8c0,0.1,0.2,0.2,0.3,0.2
							s0.2-0.1,0.2-0.2c0.4-4.8-1.3-7.8-5-10.9c5.4,2.1,11.4,2.2,17.3-0.5c0.1,0,0.2-0.2,0.1-0.3c0-0.1-0.1-0.2-0.2-0.2
							c-4.9-0.2-8.4-1.8-11.7-5.1c18.3,5.1,33.1-6.2,28-23.1c0-0.1-0.1-0.2-0.3-0.2c-0.1,0-0.2,0.1-0.2,0.2
							c-0.9,9.7-7.7,16.1-17.9,17.1c5.4-2.1,11-7,11.6-15.5c0-0.1-0.1-0.2-0.2-0.3c-0.1,0-0.2,0-0.3,0.1c-2.8,6.2-8.3,9.3-14.2,9.8
							c6.3-2.6,10.4-8.6,11.6-16.4c0-0.1-0.1-0.2-0.2-0.3c-0.1,0-0.2,0-0.3,0.1c-3.9,7.6-12.2,12.8-22.4,8.8
							c-10.6-4.1-15.3-16.4-16.3-25c0-0.1-0.1-0.2-0.2-0.2s-0.2,0.1-0.3,0.2C54.7-69.2,62-53,75-46.1c-7.1-2-13.4-6.3-17-13.4
							c-8.3-1-14-3.9-16.9-9.2c-0.1-0.1-0.2-0.2-0.3-0.1c-0.1,0-0.2,0.1-0.2,0.3c0.2,2.1,0.9,6.3,4.1,8.3c-7,0-12.5,0.9-17.8,3
							C26.7-57.2,26.7-57,26.7-56.9z M56.2-110.4c-0.1,0.1-0.2,0.1-0.3,0s-0.1-0.2,0-0.3c1.6-2.8,0.1-6.8-3.1-6.8
							c-5.7,0-8.5,10.8-7.6,20.6c2.2-5.8,4-8.1,7.3-10.8c0.1-0.1,0.2-0.1,0.3,0s0.1,0.2,0.1,0.3C48-98.3,47-91.3,47-83.3
							c1.5-6,3.2-9.3,8.1-14.4c0.1-0.1,0.2-0.1,0.3,0s0.1,0.2,0.1,0.3c-5.3,11.6-4.9,24.4-0.9,34.3c0,0.1,0,0.2-0.1,0.3
							s-0.2,0.1-0.3,0C49-65.4,45.9-67,41.4-73.2c1.4-7.4,0.2-11-3.2-17.2c3.9,9.9,1.8,23.9-8.2,29.6c-0.1,0.1-0.2,0-0.3-0.1
							c-0.1-0.1-0.1-0.2,0-0.3c3.8-4,6.5-10.6,4.2-17.9C35.4-68.7,26.3-60,16.1-60C6.5-60-0.1-67.5,0.5-74.9
							c0.5-7.4,5.4-11,9.7-12.5c0.1,0,0.2,0,0.3,0.1s0,0.2,0,0.3c-5.6,5.7-6.4,16.5,3.6,19.8c-5.9-5.1-3.7-16.8,5.7-17.7
							c0.1,0,0.2,0.1,0.3,0.2c0,0.1,0,0.2-0.1,0.3c-2,1.3-3.7,3.8-3.7,6.6c0,4.7,3.4,6.5,5.7,6.5c3.4,0,6.3-3.3,6.3-8.2
							c0-5.8-5.3-10.7-12-11.4c-6.6-0.7-12.8,2.2-15.7,6.5c-0.1,0.1-0.2,0.1-0.3,0.1C0-84.6,0-84.7,0-84.8
							c3-11.7,16.8-16.9,26.9-9.5c-6.6-7.5-17-7.6-25.7,0.1c-0.1,0.1-0.2,0.1-0.3,0s-0.1-0.2-0.1-0.3c2.7-5.4,9.3-11.8,18.6-10.9
							c8.6,0.9,13.5,9,14.5,15.7c0.6-8.5-1.4-14.5-8.8-20.1c-0.1-0.1-0.1-0.2-0.1-0.3c0.1-0.1,0.2-0.2,0.3-0.1
							c6.8,2,12.2,5.4,15,12.5c0-6.2-2.1-12.4-7.5-16.5c-0.1-0.1-0.1-0.2-0.1-0.3c0.1-0.1,0.2-0.2,0.3-0.1c3.5,1,6.2,2.5,8.1,5.2
							c1.3-11.1,6.5-17.7,12.5-17.7c4.1,0,7.2,3,7.2,7.9C61-116.6,59.5-112.6,56.2-110.4z M155.4-18.8c-3.2,3.9-9.5,5.4-16.4,4
							c0.5,4.3-0.3,8.8-1.6,11.5c-0.1,0.1-0.2,0.2-0.3,0.1c-0.1,0-0.2-0.1-0.2-0.3c0.4-8.8-4.6-15.8-13.4-18.9
							c6.9,4.8,8.9,14.2,5.6,19.1c-0.1,0.1-0.2,0.1-0.3,0.1s-0.2-0.2-0.2-0.3c0.4-2.1-0.6-4.7-2.7-6.7c-2.9-2.8-6.8-3.5-8.8-1.4
							c-2,2-1.2,5.9,1.7,8.8c1.1,1,2.3,1.8,3.4,2.2c0.1,0,0.2,0.2,0.2,0.3s-0.1,0.2-0.2,0.2c-6.4,0.6-10.8-3.3-13.5-7.9
							c-2.8-4.7-7.6-8.4-13.2-7.7c-0.1,0-0.2-0.1-0.3-0.2c0-0.1,0-0.2,0.1-0.3c2.8-1.7,5.9-2.4,9.9-1.1c-5.8-4.9-14-7.7-21.8-5.2
							c-0.1,0-0.2,0-0.3-0.1c-0.1-0.1-0.1-0.2,0-0.3c5.9-6.6,17.7-6.7,25.1-1.4c-3-4.3-7.1-7.5-14.3-8.5c-0.1,0-0.2-0.1-0.2-0.2
							c0-0.1,0.1-0.2,0.2-0.3c8.3-3.1,16.6,0,23.4,8.2c-3-6.4-7.9-11.5-14.8-14c-0.1,0-0.2-0.2-0.2-0.3s0.1-0.2,0.2-0.2
							c3.9-0.1,7.5,0.9,12.3,3.6c-3.5-5.7-2.7-15.6,2.4-22.3c0.1-0.1,0.2-0.1,0.3-0.1s0.2,0.2,0.1,0.3c-1.2,7.2,1.3,15.3,5.6,19.6
							c-2.2-7.6,0-14.6,5.9-19.6c0.1-0.1,0.2-0.1,0.3,0c0.1,0,0.1,0.1,0.2,0.2c1.2,9.4,11.8,19,20.6,19.8c0.1,0,0.2,0.1,0.2,0.2
							c0,0.1-0.1,0.2-0.2,0.3c-4.3,1-8.7,0.5-12.4-1c2.7,2.9,5.9,5.1,9.6,6.2c0.1,0,0.2,0.2,0.2,0.3c0,0.1-0.1,0.2-0.2,0.2
							c-4.5,0.3-8.9-1-12.7-3.5c4.4,6.6,11,11.5,19.4,13.5c0.1,0,0.2,0.1,0.2,0.3c0,0.1-0.1,0.2-0.2,0.2
							c-11.9,1.3-21.7-3.3-28.2-11.9c1.6,4.9,6.4,9.8,12.9,12.6c5.8,2.5,11.8,2.9,16.4,1.5c0.1,0,0.2,0,0.3,0.1
							C155.5-19,155.5-18.9,155.4-18.8z M102.5-94.3c4.8,10.5,4.5,18.7,0.6,29.1c0,0.1-0.2,0.2-0.3,0.2s-0.2-0.1-0.2-0.3
							c0.6-12.6-2.8-21.7-10.3-27.8c8.2,9.9,4.4,29.6-8.8,29.6c-9.6,0-17.5-8-19.5-17.5c0-0.1,0-0.2,0.2-0.3c0.1,0,0.2,0,0.3,0.1
							c2.8,4.8,7.4,7.9,12.5,7.9c8.1,0,10.5-6.5,10.5-11c0-6.2-4.9-11.3-8.7-11.3c-3.4,0-5,2.8-5,4.9c0,3.9,3,7.2,6.4,8.2
							c0.1,0,0.2,0.2,0.2,0.3S80.3-82,80.2-82c-4.1,0-7.6-1.9-9.6-5.6c-0.3,2.9-0.3,4.7,0.6,7.7c0,0.1,0,0.2-0.1,0.3s-0.2,0-0.3-0.1
							c-7.4-9.4-3.8-25.6,2-32.4c-5.5,4-10.4,12.6-10.3,24.4c0,0.1-0.1,0.2-0.2,0.2c-0.1,0-0.2,0-0.3-0.2
							c-4.1-10.3-1.9-29.2,9.3-39.9c-2.9-0.4-5.9-0.3-9.1,0.7c-0.1,0-0.2,0-0.3-0.1s0-0.2,0.1-0.3c4.1-3.5,9.8-4.5,15.3-4.5
							c-4.7,5.5-3.1,16.6,4.4,16.6c5.3,0,7.8-8.3,3.6-12.8c-0.1-0.1-0.1-0.2,0-0.3c0.1-0.1,0.2-0.1,0.3-0.1c4.8,1.7,9.9,5.8,9.9,11
							s-4.8,9.4-11.8,9.1c8.8,2.5,18.1-0.3,22.9-6.3c0.1-0.1,0.2-0.1,0.3-0.1c0.1,0.1,0.2,0.2,0.1,0.3c-2.8,10.7-12,15.2-23.4,13.7
							c9.3,3.8,23.2,0.5,29.4-7.3c0.1-0.1,0.2-0.1,0.3-0.1c0.1,0.1,0.2,0.2,0.1,0.3C111.8-101.2,108.3-96.3,102.5-94.3z"/>
						<path class="st2" d="M128.9-75c0-0.1-0.1-0.2-0.2-0.2c-12.9-0.1-24.8-3.3-34-11.5c8,5.6,22.9,7.5,31.5,3.6
							c0.1-0.1,0.2-0.2,0.1-0.3c0-0.1-0.1-0.2-0.3-0.2c-10.7,0.3-19.3-3-26-9c6.9-0.4,12.6-4.7,12.6-9.8c0-0.1-0.1-0.2-0.2-0.2
							s-0.2,0-0.3,0.1c-1.1,2.5-4.7,3.8-8.6,2.9c-4.2-1-7-4.2-6.3-7.2c0.5-2,2.4-3.4,5-3.8c0.1,0,0.2-0.1,0.2-0.3
							c0-0.1-0.1-0.2-0.2-0.2c-1.1-0.1-2.2-0.1-3.3,0c-6.5,0.6-11.5,4.6-11.9,9.2c-4.7-0.5-8.9-3.2-10.4-6.8c0-0.1-0.2-0.2-0.3-0.2
							s-0.2,0.1-0.2,0.2c-0.4,4.8,1.3,7.8,5,10.9c-5.4-2.1-11.4-2.2-17.3,0.5c-0.1,0.1-0.2,0.2-0.1,0.3c0,0.1,0.1,0.2,0.2,0.2
							c4.9,0.2,8.4,1.8,11.7,5.1c-18.3-5.1-33.1,6.2-28,23.1c0,0.1,0.1,0.2,0.3,0.2c0.1,0,0.2-0.1,0.2-0.2
							C49-78.3,55.8-84.7,66-85.7c-5.4,2.1-11,7-11.6,15.5c0,0.1,0.1,0.2,0.2,0.3c0.1,0,0.2,0,0.3-0.1c2.8-6.2,8.3-9.3,14.2-9.8
							c-6.3,2.6-10.4,8.6-11.6,16.4c0,0.1,0.1,0.2,0.2,0.3c0.1,0,0.2,0,0.3-0.1C61.9-70.8,70.2-76,80.4-72
							C91-67.9,95.7-55.6,96.7-47c0,0.1,0.1,0.2,0.2,0.2s0.2-0.1,0.3-0.2c3.7-15.7-3.6-31.9-16.6-38.8c7.1,2,13.4,6.3,17,13.4
							c8.3,1,14,3.9,16.9,9.2c0.1,0.1,0.2,0.2,0.3,0.1c0.1,0,0.2-0.1,0.2-0.3c-0.2-2.1-0.9-6.3-4.1-8.3c7,0,12.5-0.9,17.8-3
							C128.8-74.8,128.9-74.9,128.9-75z M99.4-21.6c0.1-0.1,0.2-0.1,0.3,0c0.1,0.1,0.1,0.2,0,0.3c-1.6,2.8-0.1,6.8,3.1,6.8
							c5.7,0,8.5-10.8,7.6-20.6c-2.2,5.8-4,8.1-7.3,10.8c-0.1,0.1-0.2,0.1-0.3,0c-0.1-0.1-0.1-0.2-0.1-0.3
							c4.9-9.1,5.9-16.1,5.9-24.1c-1.5,6-3.2,9.3-8.1,14.4c-0.1,0.1-0.2,0.1-0.3,0c-0.1-0.1-0.1-0.2-0.1-0.3
							c5.3-11.6,4.9-24.4,0.9-34.3c0-0.1,0-0.2,0.1-0.3s0.2-0.1,0.3,0c5.2,2.6,8.3,4.2,12.8,10.4c-1.4,7.4-0.2,11,3.2,17.2
							c-3.9-9.9-1.8-23.9,8.2-29.6c0.1-0.1,0.2,0,0.3,0.1c0.1,0.1,0.1,0.2,0,0.3c-3.8,4-6.5,10.6-4.2,17.9
							c-1.5-10.4,7.6-19.1,17.8-19.1c9.6,0,16.2,7.5,15.6,14.9c-0.5,7.4-5.4,11-9.7,12.5c-0.1,0-0.2,0-0.3-0.1s-0.1-0.2,0-0.3
							c5.6-5.7,6.4-16.5-3.6-19.8c5.9,5.1,3.7,16.8-5.7,17.7c-0.1,0-0.2-0.1-0.3-0.2c0-0.1,0-0.2,0.1-0.3c2-1.3,3.7-3.8,3.7-6.6
							c0-4.7-3.4-6.5-5.7-6.5c-3.4,0-6.3,3.3-6.3,8.2c0,5.8,5.3,10.7,12,11.4c6.6,0.7,12.8-2.2,15.8-6.5c0.1-0.1,0.2-0.1,0.3-0.1
							c0.1,0.1,0.2,0.2,0.1,0.3c-3,11.7-16.8,16.9-26.9,9.5c6.6,7.5,17,7.6,25.7-0.1c0.1-0.1,0.2-0.1,0.3,0s0.1,0.2,0.1,0.3
							c-2.7,5.4-9.3,11.8-18.6,10.9c-8.6-0.9-13.5-9-14.5-15.7C121-34,123-28,130.4-22.4c0.1,0.1,0.1,0.2,0.1,0.3
							c-0.1,0.1-0.2,0.2-0.3,0.1c-6.8-2-12.2-5.4-15-12.5c0,6.2,2.1,12.4,7.5,16.5c0.1,0.1,0.1,0.2,0.1,0.3
							c-0.1,0.1-0.2,0.2-0.3,0.1c-3.5-1-6.2-2.5-8.1-5.2c-1.3,11.1-6.5,17.7-12.5,17.7c-4.1,0-7.2-3-7.2-7.9
							C94.6-15.4,96.1-19.4,99.4-21.6L99.4-21.6z M0.2-113.2c3.2-3.9,9.5-5.4,16.4-4c-0.5-4.3,0.3-8.8,1.6-11.5
							c0.1-0.1,0.2-0.2,0.3-0.1c0.1,0,0.2,0.1,0.2,0.3c-0.4,8.8,4.6,15.8,13.4,18.9c-6.9-4.8-8.9-14.2-5.6-19.1
							c0.1-0.1,0.2-0.1,0.3-0.1s0.2,0.2,0.2,0.3c-0.4,2.1,0.6,4.7,2.7,6.7c2.9,2.8,6.8,3.5,8.8,1.4c2-2,1.2-5.9-1.7-8.8
							c-1.1-1-2.3-1.8-3.4-2.2c-0.1,0-0.2-0.2-0.2-0.3c0-0.1,0.1-0.2,0.2-0.2c6.4-0.6,10.8,3.3,13.5,7.9c2.8,4.7,7.6,8.4,13.2,7.7
							c0.1,0,0.2,0.1,0.3,0.2c0,0.1,0,0.2-0.1,0.3c-2.8,1.7-5.9,2.4-9.9,1.1c5.8,4.9,14,7.7,21.8,5.2c0.1,0,0.2,0,0.3,0.1
							s0.1,0.2,0,0.3c-5.9,6.6-17.7,6.7-25.1,1.4c3,4.3,7.1,7.5,14.3,8.5c0.1,0,0.2,0.1,0.2,0.2c0,0.1-0.1,0.2-0.2,0.3
							c-8.3,3.1-16.6,0-23.4-8.2c3,6.4,7.9,11.5,14.8,14c0.1,0,0.2,0.2,0.2,0.3s-0.1,0.2-0.2,0.2c-3.9,0.1-7.5-0.9-12.3-3.6
							c3.5,5.7,2.7,15.6-2.4,22.3c-0.1,0.1-0.2,0.1-0.3,0.1s-0.2-0.2-0.1-0.3c1.2-7.2-1.3-15.3-5.6-19.6c2.2,7.6,0,14.6-5.9,19.6
							c-0.1,0.1-0.2,0.1-0.3,0c-0.1,0-0.1-0.1-0.2-0.2c-1.2-9.4-11.8-19-20.6-19.8c-0.1,0-0.2-0.1-0.2-0.2c0-0.1,0.1-0.2,0.2-0.3
							c4.3-1,8.7-0.5,12.4,1c-2.7-2.9-5.9-5.1-9.6-6.2c-0.1,0-0.2-0.2-0.2-0.3s0.1-0.2,0.2-0.2c4.5-0.3,8.9,1,12.7,3.5
							c-4.4-6.6-11-11.5-19.4-13.5c-0.1,0-0.2-0.1-0.2-0.3c0-0.1,0.1-0.2,0.2-0.2c11.9-1.3,21.7,3.3,28.2,11.9
							c-1.6-4.9-6.4-9.8-12.9-12.6c-5.8-2.5-11.8-2.9-16.4-1.5c-0.1,0-0.2,0-0.3-0.1C0.1-113,0.1-113.1,0.2-113.2z M53.1-37.6
							c-4.8-10.5-4.5-18.7-0.6-29.1c0-0.1,0.2-0.2,0.3-0.2s0.2,0.1,0.2,0.3C52.4-54,55.8-44.9,63.3-38.8c-8.2-9.9-4.4-29.6,8.8-29.6
							c9.6,0,17.5,8,19.5,17.5c0,0.1,0,0.2-0.2,0.3c-0.1,0-0.2,0-0.3-0.1c-2.8-4.8-7.4-7.9-12.5-7.9c-8.1,0-10.5,6.5-10.5,11
							c0,6.2,4.9,11.3,8.7,11.3c3.4,0,5-2.8,5-4.9c0-3.9-3-7.2-6.4-8.2c-0.1,0-0.2-0.2-0.2-0.3s0.1-0.2,0.2-0.2
							c4.1,0,7.6,1.9,9.6,5.6c0.3-2.9,0.3-4.7-0.6-7.7c0-0.1,0-0.2,0.1-0.3s0.2,0,0.3,0.1c7.4,9.4,3.8,25.6-2,32.4
							c5.5-4,10.4-12.6,10.3-24.4c0-0.1,0.1-0.2,0.2-0.2s0.2,0,0.3,0.2c4.1,10.3,1.9,29.2-9.3,39.9C87.2-3.9,90.2-4,93.4-5
							c0.1,0,0.2,0,0.3,0.1c0.1,0.1,0,0.2-0.1,0.3c-4.1,3.5-9.8,4.5-15.3,4.5c4.7-5.5,3.1-16.6-4.4-16.6c-5.3,0-7.8,8.3-3.6,12.8
							c0.1,0.1,0.1,0.2,0,0.3S70.1-3.5,70-3.5c-4.8-1.7-9.9-5.8-9.9-11s4.8-9.4,11.8-9.1c-8.8-2.5-18.1,0.3-22.9,6.3
							c-0.1,0.1-0.2,0.1-0.3,0.1c-0.1-0.1-0.2-0.2-0.1-0.3c2.8-10.7,12-15.2,23.4-13.7c-9.3-3.8-23.2-0.5-29.4,7.3
							c-0.1,0.1-0.2,0.1-0.3,0.1s-0.2-0.2-0.1-0.3C43.8-30.7,47.3-35.7,53.1-37.6L53.1-37.6z"/>
					</g>
				</g>
			</g>
		</g>
	</g>
</pattern>
<g id="Layer_2_00000176038841570256619310000001935164578359804048_">
	
		<pattern  id="SVGID_00000114053487102775751340000006830853262465909684_" xlink:href="#SVGID_1_" patternTransform="matrix(1 0 0 -1 -95.2 -34238.2227)">
	</pattern>
	
		<rect x="0.5" y="-0.5" style="opacity:0.37;fill:url(#SVGID_00000114053487102775751340000006830853262465909684_);stroke:#000000;stroke-miterlimit:10;enable-background:new    ;" width="1366" height="768"/>
	<path class="st4" d="M1007.5,544.5h-439c-3.3,0-6-2.7-6-6v-18c0-3.3,2.7-6,6-6h439c3.3,0,6,2.7,6,6v18
		C1013.5,541.8,1010.8,544.5,1007.5,544.5z"/>
	<path class="st4" d="M1034.3,522.5H525.7c-11.7,0-21.2-9.5-21.2-21.2V195.7c0-11.7,9.5-21.2,21.2-21.2h508.5
		c11.7,0,21.2,9.5,21.2,21.2v305.5C1055.5,513,1046,522.5,1034.3,522.5z"/>
	<path class="st5" d="M1030.9,263.5h-43.8c-2.5,0-4.6-2.1-4.6-4.6v-4.8c0-2.5,2.1-4.6,4.6-4.6h43.8c2.5,0,4.6,2.1,4.6,4.6v4.8
		C1035.5,261.4,1033.4,263.5,1030.9,263.5z"/>
	<path class="st5" d="M1030.7,263.3h-43.8c-2.5,0-4.6-2.1-4.6-4.6v-4.8c0-2.5,2.1-4.6,4.6-4.6h43.8c2.5,0,4.6,2.1,4.6,4.6v4.8
		C1035.3,261.2,1033.2,263.3,1030.7,263.3z"/>
	<path class="st5" d="M1030.8,263.4H987c-2.5,0-4.6-2.1-4.6-4.6V254c0-2.5,2.1-4.6,4.6-4.6h43.8c2.5,0,4.6,2.1,4.6,4.6v4.8
		C1035.4,261.3,1033.3,263.4,1030.8,263.4z"/>
	<path class="st5" d="M1030.6,263.2h-43.8c-2.5,0-4.6-2.1-4.6-4.6v-4.8c0-2.5,2.1-4.6,4.6-4.6h43.8c2.5,0,4.6,2.1,4.6,4.6v4.8
		C1035.2,261.2,1033.1,263.2,1030.6,263.2z"/>
	
		<linearGradient id="SVGID_00000111899410592556219330000008766652939281591464_" gradientUnits="userSpaceOnUse" x1="944.5001" y1="460" x2="1038.5" y2="460" gradientTransform="matrix(1 0 0 -1 0 768)">
		<stop  offset="0" style="stop-color:#FFFFFF"/>
		<stop  offset="1" style="stop-color:#000000"/>
	</linearGradient>
	<path style="fill:url(#SVGID_00000111899410592556219330000008766652939281591464_);stroke:#000000;stroke-miterlimit:10;" d="
		M1027.8,395.5h-72.6c-5.9,0-10.7-4.8-10.7-10.7V231.2c0-5.9,4.8-10.7,10.7-10.7h72.6c5.9,0,10.7,4.8,10.7,10.7v153.6
		C1038.5,390.7,1033.7,395.5,1027.8,395.5z"/>
	<path class="st7" d="M1024.4,266h-43.8c-2.5,0-4.6-2.1-4.6-4.6v-4.8c0-2.5,2.1-4.6,4.6-4.6h43.8c2.5,0,4.6,2.1,4.6,4.6v4.8
		C1029,263.9,1026.9,266,1024.4,266z"/>
	<path class="st7" d="M1024.4,288h-43.8c-2.5,0-4.6-2.1-4.6-4.6v-4.8c0-2.5,2.1-4.6,4.6-4.6h43.8c2.5,0,4.6,2.1,4.6,4.6v4.8
		C1029,285.9,1026.9,288,1024.4,288z"/>
	<path class="st7" d="M1024.4,311h-43.8c-2.5,0-4.6-2.1-4.6-4.6v-4.8c0-2.5,2.1-4.6,4.6-4.6h43.8c2.5,0,4.6,2.1,4.6,4.6v4.8
		C1029,308.9,1026.9,311,1024.4,311z"/>
	<ellipse class="st8" cx="966.5" cy="365" rx="15" ry="12.5"/>
	
		<linearGradient id="SVGID_00000171695702447005555620000011962667475815092626_" gradientUnits="userSpaceOnUse" x1="947.4999" y1="328.5" x2="1037.5" y2="328.5" gradientTransform="matrix(1 0 0 -1 0 768)">
		<stop  offset="0" style="stop-color:#FFFFFF"/>
		<stop  offset="1" style="stop-color:#000000"/>
	</linearGradient>
	
		<path style="opacity:0.87;fill:url(#SVGID_00000171695702447005555620000011962667475815092626_);stroke:#000000;stroke-miterlimit:10;enable-background:new    ;" d="
		M1027.6,479.5h-70.2c-5.5,0-9.9-4.4-9.9-9.9v-60.2c0-5.5,4.4-9.9,9.9-9.9h70.2c5.5,0,9.9,4.4,9.9,9.9v60.2
		C1037.5,475.1,1033.1,479.5,1027.6,479.5z"/>
	<rect x="948" y="443.5" class="st10" width="89" height="2"/>
	<rect x="948.5" y="426.2" class="st10" width="89" height="2"/>
	<rect x="948.5" y="414.2" class="st10" width="89" height="2"/>
	<rect x="948.5" y="420.2" class="st10" width="89" height="2"/>
	<rect x="948.5" y="432.5" class="st10" width="89" height="2"/>
	<rect x="947.5" y="437.5" class="st10" width="89" height="2"/>
	<rect x="947.5" y="449.5" class="st10" width="89" height="2"/>
	<rect x="948.5" y="455.5" class="st10" width="89" height="2"/>
	<rect x="948.5" y="461.5" class="st10" width="89" height="2"/>
	<rect x="947.5" y="407.5" class="st10" width="89" height="2"/>
	<rect x="947.5" y="467.5" class="st10" width="89" height="2"/>
	<path class="st11" d="M1204.1,788.5H413.9c-15.1,0-27.4-12.3-27.4-27.4V571.9c0-15.1,12.3-27.4,27.4-27.4h790.2
		c15.1,0,27.4,12.3,27.4,27.4v189.2C1231.5,776.2,1219.2,788.5,1204.1,788.5z"/>
	<rect x="423.5" y="577.5" class="st12" width="782" height="79"/>
	<rect x="423.5" y="673.5" class="st12" width="782" height="79"/>
	<rect x="759.5" y="617.5" class="st12" width="86" height="12"/>
	<rect x="759.5" y="712.5" class="st12" width="86" height="12"/>
	<rect x="96.5" y="86.4" class="st13" width="327" height="393.1"/>
	<rect x="117.2" y="112.6" class="st14" width="286.3" height="343.9"/>
</g>
</svg>
