<svg xmlns="http://www.w3.org/2000/svg" width="256" height="256" viewBox="0 0 100 100"><rect width="100" height="100" rx="20" fill="#e16ee7"></rect><path fill="#1442ab" d="M15.17 62.32L12.31 62.32L12.31 37.55L17.19 37.55L25.25 61.04L25.33 61.04L33.25 37.55L38.14 37.55L38.14 62.32L35.28 62.32L35.41 39L35.32 39L27.31 62.32L23.13 62.32L15.13 39L15.04 39L15.17 62.32ZM60.89 61.04L60.89 37.55L63.75 37.55L63.75 62.32L58.42 62.32L46.10 38.82L46.01 38.82L46.01 62.32L43.15 62.32L43.15 37.55L48.13 37.55L60.80 61.04L60.89 61.04ZM78.13 62.89L78.13 62.89Q75.54 62.89 73.14 62.03Q70.74 61.18 69.20 59.35Q67.66 57.52 67.62 54.62L67.62 54.62L70.43 54.62Q70.43 54.75 70.52 55.37Q70.61 55.98 70.98 56.80Q71.36 57.61 72.19 58.43Q73.03 59.24 74.53 59.77Q76.02 60.30 78.35 60.30L78.35 60.30Q80.95 60.30 82.31 59.53Q83.68 58.76 84.18 57.77Q84.69 56.78 84.69 56.20L84.69 56.20Q84.73 54.66 83.85 53.74Q82.97 52.82 81.50 52.24Q80.03 51.67 78.27 51.23Q76.51 50.79 74.77 50.29Q73.03 49.78 71.58 48.97Q70.13 48.15 69.29 46.83Q68.45 45.51 68.54 43.44L68.54 43.44Q68.63 41.46 69.91 40.06Q71.18 38.65 73.32 37.88Q75.45 37.11 78.18 37.11L78.18 37.11Q80.69 37.11 82.82 38.01Q84.95 38.91 86.23 40.72Q87.51 42.52 87.42 45.20L87.42 45.20L84.65 45.20Q84.69 43.53 84.01 42.45Q83.33 41.38 82.23 40.80Q81.13 40.23 79.96 39.99Q78.79 39.75 77.91 39.75L77.91 39.75Q75.14 39.75 73.34 40.85Q71.53 41.95 71.49 43.71L71.49 43.71Q71.49 45.25 72.37 46.17Q73.25 47.10 74.72 47.65Q76.20 48.20 77.96 48.59Q79.72 48.99 81.46 49.49Q83.19 50 84.65 50.79Q86.10 51.58 86.93 52.95Q87.77 54.31 87.68 56.42L87.68 56.42Q87.59 58.49 86.32 59.92Q85.04 61.35 82.93 62.12Q80.82 62.89 78.13 62.89Z"></path></svg>